{"glyphs":{"0":{"ha":992,"x_min":92,"x_max":900,"o":"m 851 383 q 886 349 886 383 q 851 314 886 314 q 817 349 817 314 q 851 383 817 383 m 810 253 q 844 218 844 253 q 810 183 844 183 q 775 218 775 183 q 810 253 775 253 m 736 133 q 771 99 771 133 q 736 64 771 64 q 701 99 701 64 q 736 133 701 133 m 629 47 q 664 13 664 47 q 629 -22 664 -22 q 594 13 594 -22 q 629 47 594 47 m 496 13 q 531 -22 531 13 q 496 -57 531 -57 q 461 -22 461 -57 q 496 13 461 13 m 140 383 q 106 349 106 383 q 140 314 106 314 q 175 349 175 314 q 140 383 175 383 m 182 253 q 147 218 147 253 q 182 183 147 183 q 217 218 217 183 q 182 253 217 253 m 256 133 q 221 99 221 133 q 256 64 221 64 q 290 99 290 64 q 256 133 290 133 m 363 47 q 328 13 328 47 q 363 -22 328 -22 q 397 13 397 -22 q 363 47 397 47 m 865 453 q 900 488 900 453 q 865 522 900 522 q 831 488 831 522 q 865 453 831 453 m 851 590 q 886 625 886 590 q 851 660 886 660 q 817 625 817 660 q 851 590 817 590 m 810 721 q 844 756 844 721 q 810 790 844 790 q 775 756 775 790 q 810 721 775 721 m 736 840 q 771 875 771 840 q 736 910 771 910 q 701 875 701 910 q 736 840 701 840 m 629 926 q 664 961 664 926 q 629 996 664 996 q 594 961 594 996 q 629 926 594 926 m 496 961 q 531 996 531 961 q 496 1031 531 1031 q 461 996 461 1031 q 496 961 461 961 m 126 453 q 92 488 92 453 q 126 522 92 522 q 161 488 161 522 q 126 453 161 453 m 140 590 q 106 625 106 590 q 140 660 106 660 q 175 625 175 660 q 140 590 175 590 m 182 721 q 147 756 147 721 q 182 790 147 790 q 217 756 217 790 q 182 721 217 721 m 256 840 q 221 875 221 840 q 256 910 221 910 q 290 875 290 910 q 256 840 290 840 m 363 926 q 328 961 328 926 q 363 996 328 996 q 397 961 397 996 q 363 926 397 926 z "},"1":{"ha":992,"x_min":239,"x_max":642,"o":"m 607 36 q 642 1 642 36 q 607 -33 642 -33 q 572 1 572 -33 q 607 36 572 36 m 607 592 q 642 557 642 592 q 607 522 642 522 q 572 557 572 522 q 607 592 572 592 m 607 1008 q 642 974 642 1008 q 607 939 642 939 q 572 974 572 939 q 607 1008 572 1008 m 642 140 q 607 106 642 106 q 572 140 572 106 q 607 175 572 175 q 642 140 642 175 m 642 279 q 607 244 642 244 q 572 279 572 244 q 607 314 572 314 q 642 279 642 314 m 642 418 q 607 383 642 383 q 572 418 572 383 q 607 453 572 453 q 642 418 642 453 m 642 696 q 607 661 642 661 q 572 696 572 661 q 607 731 572 731 q 642 696 642 731 m 642 835 q 607 800 642 800 q 572 835 572 800 q 607 869 572 869 q 642 835 642 869 m 274 758 q 308 724 308 758 q 274 689 308 689 q 239 724 239 689 q 274 758 239 758 m 419 807 q 385 772 419 772 q 350 807 350 772 q 385 842 350 842 q 419 807 419 842 m 531 890 q 496 856 531 856 q 461 890 461 856 q 496 925 461 925 q 531 890 531 925 z "},"2":{"ha":992,"x_min":158,"x_max":833,"o":"m 618 413 q 653 378 653 413 q 618 343 653 343 q 583 378 583 343 q 618 413 583 413 m 517 318 q 551 283 551 318 q 517 249 551 249 q 482 283 482 249 q 517 318 482 318 m 415 224 q 450 189 450 224 q 415 154 450 154 q 381 189 381 154 q 415 224 381 224 m 313 129 q 278 94 278 129 q 313 60 278 60 q 347 94 347 60 q 313 129 347 129 m 211 35 q 176 0 176 35 q 211 -35 176 -35 q 246 0 246 -35 q 211 35 246 35 m 350 35 q 315 0 315 35 q 350 -35 315 -35 q 385 0 385 -35 q 350 35 385 35 m 489 35 q 454 0 454 35 q 489 -35 454 -35 q 524 0 524 -35 q 489 35 524 35 m 628 35 q 593 0 593 35 q 628 -35 593 -35 q 663 0 663 -35 q 628 35 663 35 m 767 35 q 732 0 732 35 q 767 -35 732 -35 q 801 0 801 -35 q 767 35 801 35 m 721 436 q 756 471 756 436 q 721 506 756 506 q 686 471 686 506 q 721 436 686 436 m 789 557 q 824 592 824 557 q 789 626 824 626 q 754 592 754 626 q 789 557 754 557 m 799 694 q 833 729 833 694 q 799 764 833 764 q 764 729 764 764 q 799 694 764 694 m 747 822 q 782 857 782 822 q 747 892 782 892 q 713 857 713 892 q 747 822 713 822 m 647 915 q 682 950 682 915 q 647 985 682 985 q 613 950 613 985 q 647 915 613 915 m 515 957 q 550 992 550 957 q 515 1026 550 1026 q 481 992 481 1026 q 515 957 481 957 m 193 742 q 158 776 160 742 q 194 811 158 811 q 229 776 229 811 q 193 742 229 742 m 265 860 q 231 894 231 860 q 265 929 231 929 q 300 894 300 929 q 265 860 300 860 m 379 938 q 344 972 344 938 q 379 1007 344 1007 q 414 972 414 1007 q 379 938 414 938 z "},"3":{"ha":992,"x_min":153,"x_max":839,"o":"m 719 496 q 754 461 754 496 q 719 426 754 426 q 685 461 685 426 q 719 496 685 496 m 794 381 q 829 346 829 381 q 794 311 829 311 q 760 346 760 311 q 794 381 760 381 m 804 244 q 839 210 839 244 q 804 175 839 175 q 769 210 769 175 q 804 244 769 244 m 743 121 q 778 86 778 121 q 743 51 778 51 q 708 86 708 51 q 743 121 708 121 m 632 39 q 667 4 667 39 q 632 -31 667 -31 q 597 4 597 -31 q 632 39 597 39 m 497 10 q 532 -25 532 10 q 497 -60 532 -60 q 463 -25 463 -60 q 497 10 463 10 m 363 36 q 397 1 397 36 q 363 -33 397 -33 q 328 1 328 -33 q 363 36 328 36 m 250 118 q 285 83 285 118 q 250 49 285 49 q 215 83 215 49 q 250 118 215 118 m 188 240 q 222 206 222 240 q 188 171 222 171 q 153 206 153 171 q 188 240 153 240 m 603 500 q 638 535 638 500 q 603 569 638 569 q 568 535 568 569 q 603 500 568 500 m 464 500 q 499 535 499 500 q 464 569 499 569 q 429 535 429 569 q 464 500 429 500 m 718 579 q 753 614 753 579 q 718 649 753 649 q 683 614 683 649 q 718 579 683 579 m 772 704 q 807 739 807 704 q 772 774 807 774 q 738 739 738 774 q 772 704 738 704 m 736 836 q 771 871 771 836 q 736 906 771 906 q 701 871 701 906 q 736 836 701 836 m 632 925 q 667 960 667 925 q 632 994 667 994 q 597 960 597 994 q 632 925 597 925 m 499 957 q 533 992 533 957 q 499 1026 533 1026 q 464 992 464 1026 q 499 957 464 957 m 257 840 q 222 875 222 840 q 257 910 222 910 q 292 875 292 910 q 257 840 292 840 m 363 928 q 328 963 328 928 q 363 997 328 997 q 397 963 397 997 q 363 928 397 928 z "},"4":{"ha":992,"x_min":114,"x_max":878,"o":"m 704 36 q 739 1 739 36 q 704 -33 739 -33 q 669 1 669 -33 q 704 36 669 36 m 704 592 q 739 557 739 592 q 704 522 739 522 q 669 557 669 522 q 704 592 669 592 m 704 1008 q 739 974 739 1008 q 704 939 739 939 q 669 974 669 939 q 704 1008 669 1008 m 611 892 q 646 857 646 892 q 611 822 646 822 q 576 857 576 822 q 611 892 576 892 m 519 776 q 554 742 554 776 q 519 707 554 707 q 485 742 485 707 q 519 776 485 776 m 426 661 q 461 626 461 661 q 426 592 461 592 q 392 626 392 592 q 426 661 392 661 m 333 544 q 368 510 368 544 q 333 475 368 475 q 299 510 299 475 q 333 544 299 544 m 242 429 q 276 394 276 429 q 242 360 276 360 q 207 394 207 360 q 242 429 207 429 m 149 314 q 183 279 183 314 q 149 244 183 244 q 114 279 114 244 q 149 314 114 314 m 739 140 q 704 106 739 106 q 669 140 669 106 q 704 175 669 175 q 739 140 739 175 m 600 279 q 565 244 600 244 q 531 279 531 244 q 565 314 531 314 q 600 279 600 314 m 461 279 q 426 244 461 244 q 392 279 392 244 q 426 314 392 314 q 461 279 461 314 m 322 279 q 288 244 322 244 q 253 279 253 244 q 288 314 253 314 q 322 279 322 314 m 878 279 q 843 244 878 244 q 808 279 808 244 q 843 314 808 314 q 878 279 878 314 m 739 279 q 704 244 739 244 q 669 279 669 244 q 704 314 669 314 q 739 279 739 314 m 739 418 q 704 383 739 383 q 669 418 669 383 q 704 453 669 453 q 739 418 739 453 m 739 696 q 704 661 739 661 q 669 696 669 661 q 704 731 669 731 q 739 696 739 731 m 739 835 q 704 800 739 800 q 669 835 669 800 q 704 869 669 869 q 739 835 739 869 z "},"5":{"ha":992,"x_min":149,"x_max":817,"o":"m 338 1008 q 372 974 372 1008 q 338 939 372 939 q 303 974 303 939 q 338 1008 303 1008 m 325 869 q 360 835 360 869 q 325 800 360 800 q 290 835 290 800 q 325 869 290 869 m 314 731 q 349 696 349 731 q 314 661 349 661 q 279 696 279 661 q 314 731 279 731 m 301 592 q 336 557 336 592 q 301 522 336 522 q 267 557 267 522 q 301 592 267 592 m 429 640 q 464 606 464 640 q 429 571 464 571 q 394 606 394 571 q 429 640 394 640 m 567 628 q 601 593 601 628 q 567 558 601 558 q 532 593 532 558 q 567 628 532 628 m 685 558 q 719 524 719 558 q 685 489 719 489 q 650 524 650 489 q 685 558 650 558 m 763 443 q 797 408 797 443 q 763 374 797 374 q 728 408 728 374 q 763 443 728 443 m 782 307 q 817 272 817 307 q 782 238 817 238 q 747 272 747 238 q 782 307 747 307 m 740 175 q 775 140 775 175 q 740 106 775 106 q 706 140 706 106 q 740 175 706 175 m 647 74 q 682 39 682 74 q 647 4 682 4 q 613 39 613 4 q 647 74 613 74 m 518 24 q 553 -11 553 24 q 518 -46 553 -46 q 483 -11 483 -46 q 518 24 483 24 m 381 33 q 415 -1 415 33 q 381 -36 415 -36 q 346 -1 346 -36 q 381 33 346 33 m 261 103 q 296 68 296 103 q 261 33 296 33 q 226 68 226 33 q 261 103 226 103 m 183 215 q 217 181 217 215 q 183 146 217 146 q 149 181 149 146 q 183 215 149 215 m 476 1008 q 511 974 511 1008 q 476 939 511 939 q 442 974 442 939 q 476 1008 442 1008 m 615 1008 q 650 974 650 1008 q 615 939 650 939 q 581 974 581 939 q 615 1008 581 1008 m 754 1008 q 789 974 789 1008 q 754 939 789 939 q 719 974 719 939 q 754 1008 719 1008 z "},"6":{"ha":992,"x_min":157,"x_max":835,"o":"m 251 524 q 286 489 286 524 q 251 454 286 454 q 217 489 217 454 q 251 524 217 524 m 503 643 q 538 608 538 643 q 503 574 538 574 q 468 608 468 574 q 503 643 468 643 m 319 644 q 354 610 354 644 q 319 575 354 575 q 285 610 285 575 q 319 644 285 644 m 388 765 q 422 731 422 765 q 388 696 422 696 q 353 731 353 696 q 388 765 353 765 m 456 886 q 490 851 490 886 q 456 817 490 817 q 421 851 421 817 q 456 886 421 886 m 524 1007 q 558 972 558 1007 q 524 938 558 938 q 489 972 489 938 q 524 1007 489 1007 m 636 610 q 671 575 671 610 q 636 540 671 540 q 601 575 601 540 q 636 610 601 610 m 742 522 q 776 488 776 522 q 742 453 776 453 q 707 488 707 453 q 742 522 707 522 m 800 396 q 835 361 835 396 q 800 326 835 326 q 765 361 765 326 q 800 396 765 396 m 799 258 q 833 224 833 258 q 799 189 833 189 q 764 224 764 189 q 799 258 764 258 m 738 135 q 772 100 772 135 q 738 65 772 65 q 703 100 703 65 q 738 135 703 135 m 629 50 q 664 15 664 50 q 629 -19 664 -19 q 594 15 594 -19 q 629 50 594 50 m 494 21 q 529 -14 529 21 q 494 -49 529 -49 q 460 -14 460 -49 q 494 21 460 21 m 360 51 q 394 17 394 51 q 360 -18 394 -18 q 325 17 325 -18 q 360 51 325 51 m 253 138 q 288 103 288 138 q 253 68 288 68 q 218 103 218 68 q 253 138 218 138 m 193 261 q 228 226 228 261 q 193 192 228 192 q 158 226 158 192 q 193 261 158 261 m 192 399 q 226 364 226 399 q 192 329 226 329 q 157 364 157 329 q 192 399 157 399 z "},"7":{"ha":992,"x_min":114,"x_max":878,"o":"m 372 157 q 407 122 407 157 q 372 88 407 88 q 338 122 338 88 q 372 157 338 157 m 306 35 q 340 0 340 35 q 306 -35 340 -35 q 271 0 271 -35 q 306 35 271 35 m 642 643 q 676 608 676 643 q 642 574 676 574 q 607 608 607 574 q 642 643 607 643 m 475 243 q 440 208 475 208 q 406 243 406 208 q 440 278 406 278 q 475 243 475 278 m 542 365 q 507 331 542 331 q 472 365 472 331 q 507 400 472 400 q 542 365 542 400 m 610 486 q 575 451 610 451 q 540 486 540 451 q 575 521 540 521 q 610 486 610 521 m 743 729 q 708 694 743 694 q 674 729 674 694 q 708 764 674 764 q 743 729 743 764 m 811 851 q 776 817 811 817 q 742 851 742 817 q 776 886 742 886 q 811 851 811 886 m 843 1007 q 878 972 878 1007 q 843 938 878 938 q 808 972 808 938 q 843 1007 808 1007 m 704 1007 q 739 972 739 1007 q 704 938 739 938 q 669 972 669 938 q 704 1007 669 1007 m 565 1007 q 600 972 600 1007 q 565 938 600 938 q 531 972 531 938 q 565 1007 531 1007 m 426 1007 q 461 972 461 1007 q 426 938 461 938 q 392 972 392 938 q 426 1007 392 1007 m 288 1007 q 322 972 322 1007 q 288 938 322 938 q 253 972 253 938 q 288 1007 253 1007 m 149 1007 q 183 972 183 1007 q 149 938 183 938 q 114 972 114 938 q 149 1007 114 1007 z "},"8":{"ha":992,"x_min":154,"x_max":838,"o":"m 718 496 q 753 461 753 496 q 718 426 753 426 q 683 461 683 426 q 718 496 683 496 m 793 381 q 828 346 828 381 q 793 311 828 311 q 758 346 758 311 q 793 381 758 381 m 803 244 q 838 210 838 244 q 803 175 838 175 q 768 210 768 175 q 803 244 768 244 m 742 121 q 776 86 776 121 q 742 51 776 51 q 707 86 707 51 q 742 121 707 121 m 631 39 q 665 4 665 39 q 631 -31 665 -31 q 596 4 596 -31 q 631 39 596 39 m 496 10 q 531 -25 531 10 q 496 -60 531 -60 q 461 -25 461 -60 q 496 10 461 10 m 601 500 q 636 535 636 500 q 601 569 636 569 q 567 535 567 569 q 601 500 567 500 m 717 579 q 751 614 751 579 q 717 649 751 649 q 682 614 682 649 q 717 579 682 579 m 771 704 q 806 739 806 704 q 771 774 806 774 q 736 739 736 774 q 771 704 736 704 m 735 836 q 769 871 769 836 q 735 906 769 906 q 700 871 700 906 q 735 836 700 836 m 631 925 q 665 960 665 925 q 631 994 665 994 q 596 960 596 994 q 631 925 596 925 m 496 957 q 531 992 531 957 q 496 1026 531 1026 q 461 992 461 1026 q 496 957 461 957 m 274 496 q 239 461 239 496 q 274 426 239 426 q 308 461 308 426 q 274 496 308 496 m 199 381 q 164 346 164 381 q 199 311 164 311 q 233 346 233 311 q 199 381 233 381 m 189 244 q 154 210 154 244 q 189 175 154 175 q 224 210 224 175 q 189 244 224 244 m 251 121 q 217 86 217 121 q 251 51 217 51 q 286 86 286 51 q 251 121 286 121 m 361 39 q 326 4 326 39 q 361 -31 326 -31 q 396 4 396 -31 q 361 39 396 39 m 390 500 q 356 535 356 500 q 390 569 356 569 q 425 535 425 569 q 390 500 425 500 m 276 579 q 242 614 242 579 q 276 649 242 649 q 311 614 311 649 q 276 579 311 579 m 222 704 q 188 739 188 704 q 222 774 188 774 q 257 739 257 774 q 222 704 257 704 m 257 836 q 222 871 222 836 q 257 906 222 906 q 292 871 292 906 q 257 836 292 836 m 361 925 q 326 960 326 925 q 361 994 326 994 q 396 960 396 994 q 361 925 396 925 z "},"9":{"ha":992,"x_min":157,"x_max":835,"o":"m 742 449 q 707 483 707 449 q 742 518 707 518 q 776 483 776 518 q 742 449 776 449 m 489 329 q 454 364 454 329 q 489 399 454 399 q 524 364 524 399 q 489 329 524 329 m 672 328 q 638 363 638 328 q 672 397 638 397 q 707 363 707 397 q 672 328 707 328 m 604 207 q 569 242 569 207 q 604 276 569 276 q 639 242 639 276 q 604 207 639 207 m 536 86 q 501 121 501 86 q 536 156 501 156 q 571 121 571 156 q 536 86 571 86 m 468 -35 q 433 0 433 -35 q 468 35 433 35 q 503 0 503 35 q 468 -35 503 -35 m 356 363 q 321 397 321 363 q 356 432 321 432 q 390 397 390 432 q 356 363 390 363 m 250 451 q 215 486 215 451 q 250 521 215 521 q 285 486 285 521 q 250 451 285 451 m 192 576 q 157 611 157 576 q 192 646 157 646 q 226 611 226 646 q 192 576 226 576 m 193 714 q 158 749 158 714 q 193 783 158 783 q 228 749 228 783 q 193 714 228 714 m 254 838 q 219 872 219 838 q 254 907 219 907 q 289 872 289 907 q 254 838 289 838 m 363 922 q 328 957 328 922 q 363 992 328 992 q 397 957 397 992 q 363 922 397 922 m 497 951 q 463 986 463 951 q 497 1021 463 1021 q 532 986 532 1021 q 497 951 532 951 m 632 921 q 597 956 597 921 q 632 990 597 990 q 667 956 667 990 q 632 921 667 921 m 739 835 q 704 869 704 835 q 739 904 704 904 q 774 869 774 904 q 739 835 774 835 m 799 711 q 764 746 764 711 q 799 781 764 781 q 833 746 833 781 q 799 711 833 711 m 800 574 q 765 608 765 574 q 800 643 765 643 q 835 608 835 643 q 800 574 835 574 z "}," ":{"ha":833,"x_min":0,"x_max":0,"o":""},"!":{"ha":278,"x_min":104,"x_max":174,"o":"m 139 36 q 174 1 174 36 q 139 -33 174 -33 q 104 1 104 -33 q 139 36 104 36 m 139 592 q 174 557 174 592 q 139 522 174 522 q 104 557 104 522 q 139 592 104 592 m 139 1008 q 174 974 174 1008 q 139 939 174 939 q 104 974 104 939 q 139 1008 104 1008 m 174 279 q 139 244 174 244 q 104 279 104 244 q 139 314 104 314 q 174 279 174 314 m 174 418 q 139 383 174 383 q 104 418 104 383 q 139 453 104 453 q 174 418 174 453 m 174 696 q 139 661 174 661 q 104 696 104 661 q 139 731 104 731 q 174 696 174 731 m 174 835 q 139 800 174 800 q 104 835 104 800 q 139 869 104 869 q 174 835 174 869 z "},"\"":{"ha":417,"x_min":104,"x_max":313,"o":"m 139 1007 q 174 972 174 1007 q 139 938 174 938 q 104 972 104 938 q 139 1007 104 1007 m 278 1007 q 313 972 313 1007 q 278 938 313 938 q 243 972 243 938 q 278 1007 243 1007 m 139 868 q 174 833 174 868 q 139 799 174 799 q 104 833 104 799 q 139 868 104 868 m 278 868 q 313 833 313 868 q 278 799 313 799 q 243 833 243 799 q 278 868 243 868 m 139 729 q 174 694 174 729 q 139 660 174 660 q 104 694 104 660 q 139 729 104 729 m 278 729 q 313 694 313 729 q 278 660 313 660 q 243 694 243 660 q 278 729 243 729 z "},"#":{"ha":813,"x_min":94,"x_max":719,"o":"m 268 36 q 303 1 303 36 q 268 -33 303 -33 q 233 1 233 -33 q 268 36 233 36 m 268 592 q 303 557 303 592 q 268 522 303 522 q 233 557 233 522 q 268 592 233 592 m 268 1008 q 303 974 303 1008 q 268 939 303 939 q 233 974 233 939 q 268 1008 233 1008 m 303 140 q 268 106 303 106 q 233 140 233 106 q 268 175 233 175 q 303 140 303 175 m 303 279 q 268 244 303 244 q 233 279 233 244 q 268 314 233 314 q 303 279 303 314 m 303 418 q 268 383 303 383 q 233 418 233 383 q 268 453 233 453 q 303 418 303 453 m 303 696 q 268 661 303 661 q 233 696 233 661 q 268 731 233 731 q 303 696 303 731 m 303 835 q 268 800 303 800 q 233 835 233 800 q 268 869 233 869 q 303 835 303 869 m 546 36 q 581 1 581 36 q 546 -33 581 -33 q 511 1 511 -33 q 546 36 511 36 m 546 592 q 581 557 581 592 q 546 522 581 522 q 511 557 511 522 q 546 592 511 592 m 546 1008 q 581 974 581 1008 q 546 939 581 939 q 511 974 511 939 q 546 1008 511 1008 m 581 140 q 546 106 581 106 q 511 140 511 106 q 546 175 511 175 q 581 140 581 175 m 581 279 q 546 244 581 244 q 511 279 511 244 q 546 314 511 314 q 581 279 581 314 m 581 418 q 546 383 581 383 q 511 418 511 383 q 546 453 511 453 q 581 418 581 453 m 581 835 q 546 800 581 800 q 511 835 511 800 q 546 869 511 869 q 581 835 581 869 m 650 696 q 685 731 650 731 q 719 696 719 731 q 685 661 719 661 q 650 696 650 661 m 94 696 q 129 731 94 731 q 164 696 164 731 q 129 661 164 661 q 94 696 94 661 m 546 731 q 581 696 581 731 q 546 661 581 661 q 511 696 511 661 q 546 731 511 731 m 407 731 q 442 696 442 731 q 407 661 442 661 q 372 696 372 661 q 407 731 372 731 m 650 279 q 685 314 650 314 q 719 279 719 314 q 685 244 719 244 q 650 279 650 244 m 94 279 q 129 314 94 314 q 164 279 164 314 q 129 244 164 244 q 94 279 94 244 m 407 314 q 442 279 442 314 q 407 244 442 244 q 372 279 372 244 q 407 314 372 314 z "},"$":{"ha":872,"x_min":76,"x_max":796,"o":"m 429 36 q 464 1 464 36 q 429 -33 464 -33 q 394 1 394 -33 q 429 36 394 36 m 429 -103 q 464 -137 464 -103 q 429 -172 464 -172 q 394 -137 394 -172 q 429 -103 394 -103 m 429 592 q 464 557 464 592 q 429 522 464 522 q 394 557 394 522 q 429 592 394 592 m 301 636 q 336 601 336 636 q 301 567 336 567 q 267 601 267 567 q 301 636 267 636 m 213 740 q 247 706 247 740 q 213 671 247 671 q 178 706 178 671 q 213 740 178 740 m 207 876 q 242 842 242 876 q 207 807 242 807 q 172 842 172 807 q 207 876 172 876 m 292 982 q 326 947 326 982 q 292 913 326 913 q 257 947 257 913 q 292 982 257 982 m 561 982 q 596 947 596 982 q 561 913 596 913 q 526 947 526 913 q 561 982 526 982 m 658 888 q 693 853 693 888 q 658 818 693 818 q 624 853 624 818 q 658 888 624 888 m 676 750 q 711 715 711 750 q 676 681 711 681 q 642 715 642 681 q 676 750 642 750 m 565 556 q 600 521 600 556 q 565 486 600 486 q 531 521 531 486 q 565 556 531 556 m 689 492 q 724 457 724 492 q 689 422 724 422 q 654 457 654 422 q 689 492 654 492 m 761 376 q 796 342 796 376 q 761 307 796 307 q 726 342 726 307 q 761 376 726 376 m 760 238 q 794 203 794 238 q 760 168 794 168 q 725 203 725 168 q 760 238 725 238 m 686 124 q 721 89 721 124 q 686 54 721 54 q 651 89 651 54 q 686 124 651 124 m 564 58 q 599 24 599 58 q 564 -11 599 -11 q 529 24 529 -11 q 564 58 529 58 m 292 58 q 326 24 326 58 q 292 -11 326 -11 q 257 24 257 -11 q 292 58 257 58 m 178 136 q 213 101 213 136 q 178 67 213 67 q 143 101 143 67 q 178 136 143 136 m 117 258 q 151 224 151 258 q 117 189 151 189 q 82 224 82 189 q 117 258 82 258 m 111 397 q 146 363 146 397 q 111 328 146 328 q 76 363 76 328 q 111 397 76 397 m 429 1008 q 464 974 464 1008 q 429 939 464 939 q 394 974 394 939 q 429 1008 394 1008 m 464 140 q 429 106 464 106 q 394 140 394 106 q 429 175 394 175 q 464 140 464 175 m 464 279 q 429 244 464 244 q 394 279 394 244 q 429 314 394 314 q 464 279 464 314 m 464 418 q 429 383 464 383 q 394 418 394 383 q 429 453 394 453 q 464 418 464 453 m 464 696 q 429 661 464 661 q 394 696 394 661 q 429 731 394 731 q 464 696 464 731 m 464 835 q 429 800 464 800 q 394 835 394 800 q 429 869 394 869 q 464 835 464 869 z "},"%":{"ha":1078,"x_min":53,"x_max":1025,"o":"m 929 939 q 894 974 894 939 q 929 1008 894 1008 q 964 974 964 1008 q 929 939 964 939 m 842 831 q 807 865 807 831 q 842 900 807 900 q 876 865 876 900 q 842 831 876 831 m 756 722 q 721 757 721 722 q 756 792 721 792 q 790 757 790 792 q 756 722 790 722 m 668 614 q 633 649 633 614 q 668 683 633 683 q 703 649 703 683 q 668 614 703 614 m 581 506 q 546 540 546 506 q 581 575 546 575 q 615 540 615 575 q 581 506 615 506 m 493 399 q 458 433 458 399 q 493 468 458 468 q 528 433 528 468 q 493 399 528 399 m 406 290 q 371 325 371 290 q 406 360 371 360 q 440 325 440 360 q 406 290 440 290 m 319 182 q 285 217 285 182 q 319 251 285 251 q 354 217 354 251 q 319 182 354 182 m 232 74 q 197 108 197 74 q 232 143 197 143 q 267 108 267 143 q 232 74 267 74 m 144 -33 q 110 1 110 -33 q 144 36 110 36 q 179 1 179 36 q 144 -33 179 -33 m 810 318 q 775 353 775 318 q 810 388 775 388 q 844 353 844 388 q 810 318 844 318 m 938 267 q 903 301 903 267 q 938 336 903 336 q 972 301 972 336 q 938 267 972 267 m 990 142 q 956 176 956 142 q 990 211 956 211 q 1025 176 1025 211 q 990 142 1025 142 m 682 267 q 717 301 717 267 q 682 336 717 336 q 647 301 647 336 q 682 267 647 267 m 629 142 q 664 176 664 142 q 629 211 664 211 q 594 176 594 211 q 629 142 594 142 m 810 36 q 775 1 775 36 q 810 -33 775 -33 q 844 1 844 -33 q 810 36 844 36 m 938 88 q 903 53 903 88 q 938 18 903 18 q 972 53 972 18 q 938 88 972 88 m 682 88 q 717 53 717 88 q 682 18 717 18 q 647 53 647 18 q 682 88 647 88 m 268 939 q 233 974 233 939 q 268 1008 233 1008 q 303 974 303 1008 q 268 939 303 939 m 396 886 q 361 921 361 886 q 396 956 361 956 q 431 921 431 956 q 396 886 431 886 m 449 763 q 414 797 414 763 q 449 832 414 832 q 483 797 483 832 q 449 763 483 763 m 140 886 q 175 921 175 886 q 140 956 175 956 q 106 921 106 956 q 140 886 106 886 m 88 763 q 122 797 122 763 q 88 832 122 832 q 53 797 53 832 q 88 763 53 763 m 268 656 q 233 621 233 656 q 268 586 233 586 q 303 621 303 586 q 268 656 303 656 m 396 707 q 361 672 361 707 q 396 638 361 638 q 431 672 431 638 q 396 707 431 707 m 140 707 q 175 672 175 707 q 140 638 175 638 q 106 672 106 638 q 140 707 106 707 z "},"&":{"ha":878,"x_min":69,"x_max":807,"o":"m 633 496 q 668 461 668 496 q 633 426 668 426 q 599 461 599 426 q 633 496 599 496 m 494 496 q 529 461 529 496 q 494 426 529 426 q 460 461 460 426 q 494 496 460 496 m 772 496 q 807 461 807 496 q 772 426 807 426 q 738 461 738 426 q 772 496 738 496 m 708 381 q 743 346 743 381 q 708 311 743 311 q 674 346 674 311 q 708 381 674 381 m 718 244 q 753 210 753 244 q 718 175 753 175 q 683 210 683 175 q 718 244 683 244 m 657 121 q 692 86 692 121 q 657 51 692 51 q 622 86 622 51 q 657 121 622 121 m 546 39 q 581 4 581 39 q 546 -31 581 -31 q 511 4 511 -31 q 546 39 511 39 m 411 10 q 446 -25 446 10 q 411 -60 446 -60 q 376 -25 376 -60 q 411 10 376 10 m 650 836 q 685 871 685 836 q 650 906 685 906 q 615 871 615 906 q 650 836 615 836 m 546 925 q 581 960 581 925 q 546 994 581 994 q 511 960 511 994 q 546 925 511 925 m 411 957 q 446 992 446 957 q 411 1026 446 1026 q 376 992 376 1026 q 411 957 376 957 m 189 496 q 154 461 154 496 q 189 426 154 426 q 224 461 224 426 q 189 496 224 496 m 114 381 q 79 346 79 381 q 114 311 79 311 q 149 346 149 311 q 114 381 149 381 m 104 244 q 69 210 69 244 q 104 175 69 175 q 139 210 139 175 q 104 244 139 244 m 165 121 q 131 86 131 121 q 165 51 131 51 q 200 86 200 51 q 165 121 200 121 m 276 39 q 242 4 242 39 q 276 -31 242 -31 q 311 4 311 -31 q 276 39 311 39 m 306 500 q 271 535 271 500 q 306 569 271 569 q 340 535 340 569 q 306 500 340 500 m 192 579 q 157 614 157 579 q 192 649 157 649 q 226 614 226 649 q 192 579 226 579 m 138 704 q 103 739 103 704 q 138 774 103 774 q 172 739 172 774 q 138 704 172 704 m 172 836 q 138 871 138 836 q 172 906 138 906 q 207 871 207 906 q 172 836 207 836 m 276 925 q 242 960 242 925 q 276 994 242 994 q 311 960 311 994 q 276 925 311 925 z "},"'":{"ha":278,"x_min":104,"x_max":174,"o":"m 139 1007 q 174 972 174 1007 q 139 938 174 938 q 104 972 104 938 q 139 1007 104 1007 m 139 868 q 174 833 174 868 q 139 799 174 799 q 104 833 104 799 q 139 868 104 868 m 139 729 q 174 694 174 729 q 139 660 174 660 q 104 694 104 660 q 139 729 104 729 z "},"(":{"ha":454,"x_min":104,"x_max":350,"o":"m 238 896 q 203 861 203 896 q 238 826 203 826 q 272 861 272 826 q 238 896 272 896 m 315 1010 q 281 975 281 1010 q 315 940 281 940 q 350 975 350 940 q 315 1010 350 1010 m 186 767 q 151 732 151 767 q 186 697 151 697 q 221 732 221 697 q 186 767 221 767 m 154 632 q 119 597 119 632 q 154 563 119 563 q 189 597 189 563 q 154 632 189 632 m 139 494 q 104 460 104 494 q 139 425 104 425 q 174 460 174 425 q 139 494 174 494 m 139 356 q 104 321 104 356 q 139 286 104 286 q 174 321 174 286 q 139 356 174 356 m 238 -117 q 203 -82 203 -117 q 238 -47 203 -47 q 272 -82 272 -47 q 238 -117 272 -117 m 315 -231 q 281 -196 281 -231 q 315 -161 281 -161 q 350 -196 350 -161 q 315 -231 350 -231 m 186 13 q 151 47 151 13 q 186 82 151 82 q 221 47 221 82 q 186 13 221 13 m 154 147 q 119 182 119 147 q 154 217 119 217 q 189 182 189 217 q 154 147 189 147 z "},")":{"ha":454,"x_min":104,"x_max":350,"o":"m 217 896 q 251 861 251 896 q 217 826 251 826 q 182 861 182 826 q 217 896 182 896 m 139 1010 q 174 975 174 1010 q 139 940 174 940 q 104 975 104 940 q 139 1010 104 1010 m 269 767 q 304 732 304 767 q 269 697 304 697 q 235 732 235 697 q 269 767 235 767 m 300 632 q 335 597 335 632 q 300 563 335 563 q 265 597 265 563 q 300 632 265 632 m 315 494 q 350 460 350 494 q 315 425 350 425 q 281 460 281 425 q 315 494 281 494 m 315 356 q 350 321 350 356 q 315 286 350 286 q 281 321 281 286 q 315 356 281 356 m 217 -117 q 251 -82 251 -117 q 217 -47 251 -47 q 182 -82 182 -47 q 217 -117 182 -117 m 139 -231 q 174 -196 174 -231 q 139 -161 174 -161 q 104 -196 104 -161 q 139 -231 104 -231 m 269 13 q 304 47 304 13 q 269 82 304 82 q 235 47 235 82 q 269 13 235 13 m 300 147 q 335 182 335 147 q 300 217 335 217 q 265 182 265 217 q 300 147 265 147 z "},"*":{"ha":518,"x_min":104,"x_max":414,"o":"m 294 696 q 260 661 294 661 q 225 696 225 661 q 260 731 225 731 q 294 696 294 731 m 294 835 q 260 800 294 800 q 225 835 225 800 q 260 869 225 869 q 294 835 294 869 m 294 974 q 260 939 294 939 q 225 974 225 939 q 260 1008 225 1008 q 294 974 294 1008 m 379 799 q 414 764 414 799 q 379 729 414 729 q 344 765 344 729 q 379 799 344 799 m 139 938 q 174 904 174 938 q 139 868 174 868 q 104 903 104 868 q 139 938 104 938 m 379 938 q 414 903 414 938 q 379 868 414 868 q 344 903 344 868 q 379 938 344 938 m 139 799 q 174 764 174 799 q 139 729 174 729 q 104 764 104 729 q 139 799 104 799 z "},"+":{"ha":806,"x_min":90,"x_max":715,"o":"m 403 592 q 438 557 438 592 q 403 522 438 522 q 368 557 368 522 q 403 592 368 592 m 438 140 q 403 106 438 106 q 368 140 368 106 q 403 175 368 175 q 438 140 438 175 m 438 279 q 403 244 438 244 q 368 279 368 244 q 403 314 368 314 q 438 279 438 314 m 438 418 q 403 383 438 383 q 368 418 368 383 q 403 453 368 453 q 438 418 438 453 m 576 418 q 542 383 576 383 q 507 418 507 383 q 542 453 507 453 q 576 418 576 453 m 715 418 q 681 383 715 383 q 646 418 646 383 q 681 453 646 453 q 715 418 715 453 m 299 418 q 264 383 299 383 q 229 418 229 383 q 264 453 229 453 q 299 418 299 453 m 160 418 q 125 383 160 383 q 90 418 90 383 q 125 453 90 453 q 160 418 160 453 m 438 696 q 403 661 438 661 q 368 696 368 661 q 403 731 368 731 q 438 696 438 731 z "},",":{"ha":344,"x_min":92,"x_max":253,"o":"m 156 -90 q 169 -137 186 -107 q 122 -151 153 -168 q 108 -104 92 -135 q 156 -90 125 -74 m 224 31 q 236 -17 253 14 q 189 -29 219 -47 q 176 17 158 -12 q 224 31 193 47 z "},"-":{"ha":528,"x_min":90,"x_max":438,"o":"m 160 418 q 125 383 160 383 q 90 418 90 383 q 125 453 90 453 q 160 418 160 453 m 299 418 q 264 383 299 383 q 229 418 229 383 q 264 453 229 453 q 299 418 299 453 m 438 418 q 403 383 438 383 q 368 418 368 383 q 403 453 368 453 q 438 418 438 453 z "},".":{"ha":278,"x_min":104,"x_max":174,"o":"m 139 36 q 174 1 174 36 q 139 -33 174 -33 q 104 1 104 -33 q 139 36 104 36 z "},"/":{"ha":788,"x_min":90,"x_max":697,"o":"m 192 157 q 226 122 226 157 q 192 88 226 88 q 157 122 157 88 q 192 157 157 157 m 125 35 q 160 0 160 35 q 125 -35 160 -35 q 90 0 90 -35 q 125 35 90 35 m 461 643 q 496 608 496 643 q 461 574 496 574 q 426 608 426 574 q 461 643 426 643 m 294 243 q 260 208 294 208 q 225 243 225 208 q 260 278 225 278 q 294 243 294 278 m 361 365 q 326 331 361 331 q 292 365 292 331 q 326 400 292 400 q 361 365 361 400 m 429 486 q 394 451 429 451 q 360 486 360 451 q 394 521 360 521 q 429 486 429 521 m 563 729 q 528 694 563 694 q 493 729 493 694 q 528 764 493 764 q 563 729 563 764 m 631 851 q 596 817 631 817 q 561 851 561 817 q 596 886 561 886 q 631 851 631 886 m 663 1007 q 697 972 697 1007 q 663 938 697 938 q 628 972 628 938 q 663 1007 628 1007 z "},":":{"ha":278,"x_min":104,"x_max":174,"o":"m 139 36 q 174 1 174 36 q 139 -33 174 -33 q 104 1 104 -33 q 139 36 104 36 m 139 592 q 174 557 174 592 q 139 522 174 522 q 104 557 104 522 q 139 592 104 592 z "},";":{"ha":344,"x_min":92,"x_max":253,"o":"m 206 592 q 240 557 240 592 q 206 522 240 522 q 171 557 171 522 q 206 592 171 592 m 156 -90 q 169 -137 186 -107 q 122 -151 153 -168 q 108 -104 92 -135 q 156 -90 125 -74 m 222 31 q 236 -17 253 14 q 189 -29 219 -47 q 175 17 158 -12 q 222 31 192 47 z "},"<":{"ha":836,"x_min":76,"x_max":760,"o":"m 233 226 q 199 261 199 226 q 233 296 199 296 q 268 261 268 296 q 233 226 268 226 m 357 161 q 322 196 322 161 q 357 231 322 231 q 392 196 392 231 q 357 161 392 161 m 479 96 q 444 131 444 96 q 479 165 444 165 q 514 131 514 165 q 479 96 514 96 m 601 31 q 567 65 567 31 q 601 100 567 100 q 636 65 636 100 q 601 31 636 31 m 111 361 q 76 326 76 361 q 111 292 76 292 q 146 328 146 293 q 111 361 146 363 m 233 426 q 199 392 199 426 q 235 357 200 357 q 268 392 269 358 q 233 426 268 428 m 356 492 q 322 457 321 492 q 357 422 322 422 q 392 457 392 422 q 356 492 390 492 m 479 557 q 444 521 444 556 q 479 488 444 486 q 514 522 514 488 q 479 557 514 557 m 601 622 q 567 586 567 621 q 603 553 568 551 q 636 588 638 553 q 601 622 636 622 m 725 -33 q 690 1 690 -33 q 725 36 690 36 q 760 1 760 36 q 725 -33 760 -33 m 724 688 q 690 651 689 686 q 725 618 690 617 q 760 653 760 618 q 724 688 758 688 z "},"=":{"ha":806,"x_min":90,"x_max":715,"o":"m 160 140 q 125 106 160 106 q 90 140 90 106 q 125 175 90 175 q 160 140 160 175 m 160 418 q 125 383 160 383 q 90 418 90 383 q 125 453 90 453 q 160 418 160 453 m 299 140 q 264 106 299 106 q 229 140 229 106 q 264 175 229 175 q 299 140 299 175 m 299 418 q 264 383 299 383 q 229 418 229 383 q 264 453 229 453 q 299 418 299 453 m 438 140 q 403 106 438 106 q 368 140 368 106 q 403 175 368 175 q 438 140 438 175 m 438 418 q 403 383 438 383 q 368 418 368 383 q 403 453 368 453 q 438 418 438 453 m 576 140 q 542 106 576 106 q 507 140 507 106 q 542 175 507 175 q 576 140 576 175 m 576 418 q 542 383 576 383 q 507 418 507 383 q 542 453 507 453 q 576 418 576 453 m 715 140 q 681 106 715 106 q 646 140 646 106 q 681 175 646 175 q 715 140 715 175 m 715 418 q 681 383 715 383 q 646 418 646 383 q 681 453 646 453 q 715 418 715 453 z "},">":{"ha":836,"x_min":76,"x_max":760,"o":"m 601 226 q 636 261 636 226 q 601 296 636 296 q 567 261 567 296 q 601 226 567 226 m 479 161 q 514 196 514 161 q 479 231 514 231 q 444 196 444 231 q 479 161 444 161 m 357 96 q 392 131 392 96 q 357 165 392 165 q 322 131 322 165 q 357 96 322 96 m 233 31 q 268 65 268 31 q 233 100 268 100 q 199 65 199 100 q 233 31 199 31 m 725 361 q 760 326 760 361 q 724 292 758 292 q 690 328 689 293 q 725 361 690 363 m 603 426 q 636 392 638 426 q 601 357 636 357 q 567 392 567 358 q 603 426 568 428 m 479 492 q 514 457 514 492 q 478 422 514 422 q 444 457 444 422 q 479 492 444 492 m 357 557 q 392 521 392 556 q 356 488 390 486 q 322 522 321 488 q 357 557 322 557 m 235 622 q 268 586 269 621 q 233 553 268 551 q 199 588 199 553 q 235 622 200 622 m 111 -33 q 146 1 146 -33 q 111 36 146 36 q 76 1 76 36 q 111 -33 76 -33 m 111 688 q 146 651 146 686 q 111 618 146 617 q 76 653 76 618 q 111 688 76 688 z "},"?":{"ha":853,"x_min":82,"x_max":771,"o":"m 429 36 q 464 1 464 36 q 429 -33 464 -33 q 394 1 394 -33 q 429 36 394 36 m 464 279 q 429 244 464 244 q 394 279 394 244 q 429 314 394 314 q 464 279 464 314 m 464 418 q 429 383 464 383 q 394 418 394 383 q 429 453 394 453 q 464 418 464 453 m 597 446 q 563 411 597 411 q 528 446 528 411 q 563 481 528 481 q 597 446 597 481 m 708 528 q 674 493 708 493 q 639 528 639 493 q 674 563 639 563 q 708 528 708 563 m 771 650 q 736 615 771 615 q 701 650 701 615 q 736 685 701 685 q 771 650 771 685 m 764 786 q 729 751 764 751 q 694 786 694 751 q 729 821 694 821 q 764 786 764 821 m 690 903 q 656 868 690 868 q 621 903 621 868 q 656 938 621 938 q 690 903 690 938 m 572 974 q 538 939 572 939 q 503 974 503 939 q 538 1008 503 1008 q 572 974 572 1008 m 435 990 q 400 956 435 956 q 365 990 365 956 q 400 1025 365 1025 q 435 990 435 1025 m 303 951 q 268 917 303 917 q 233 951 233 917 q 268 986 233 986 q 303 951 303 986 m 200 860 q 165 825 200 825 q 131 860 131 825 q 165 894 131 894 q 200 860 200 894 m 151 731 q 117 696 151 696 q 82 731 82 696 q 117 765 82 765 q 151 731 151 765 z "},"@":{"ha":1308,"x_min":76,"x_max":1232,"o":"m 897 235 q 932 200 932 235 q 897 165 932 165 q 863 200 863 165 q 897 235 863 235 m 871 371 q 906 336 906 371 q 871 301 906 301 q 836 336 836 301 q 871 371 836 371 m 871 510 q 906 475 906 510 q 871 440 906 440 q 836 475 836 440 q 871 510 836 510 m 871 649 q 906 614 906 649 q 871 579 906 579 q 836 614 836 579 q 871 649 836 649 m 871 788 q 906 753 906 788 q 871 718 906 718 q 836 753 836 718 q 871 788 836 788 m 732 788 q 767 753 767 788 q 732 718 767 718 q 697 753 697 718 q 732 788 697 788 m 593 788 q 628 753 628 788 q 593 718 628 718 q 558 753 558 718 q 593 788 558 788 m 465 736 q 500 701 500 736 q 465 667 500 667 q 431 701 431 667 q 465 736 431 736 m 379 628 q 414 593 414 628 q 379 558 414 558 q 344 593 344 558 q 379 628 344 628 m 351 493 q 386 458 386 493 q 351 424 386 424 q 317 458 317 424 q 351 493 317 493 m 393 363 q 428 328 428 363 q 393 293 428 293 q 358 328 358 293 q 393 363 358 363 m 493 268 q 528 233 528 268 q 493 199 528 199 q 458 233 458 199 q 493 268 458 268 m 628 239 q 663 204 663 239 q 628 169 663 169 q 593 204 593 169 q 628 239 593 239 m 754 290 q 789 256 789 290 q 754 221 789 221 q 719 256 719 221 q 754 290 719 290 m 793 -46 q 828 -11 828 -46 q 793 24 828 24 q 758 -11 758 24 q 793 -46 758 -46 m 1036 893 q 1071 858 1071 893 q 1036 824 1071 824 q 1001 858 1001 824 q 1036 893 1001 893 m 922 974 q 957 939 957 974 q 922 904 957 904 q 888 939 888 904 q 922 974 888 974 m 793 1019 q 828 985 828 1019 q 793 950 828 950 q 758 985 758 950 q 793 1019 758 1019 m 654 1031 q 689 996 689 1031 q 654 961 689 961 q 619 996 619 961 q 654 1031 619 1031 m 1197 522 q 1232 488 1232 522 q 1197 453 1232 453 q 1163 488 1163 453 q 1197 522 1163 522 m 1178 658 q 1213 624 1213 658 q 1178 589 1213 589 q 1143 624 1143 589 q 1178 658 1143 658 m 1124 786 q 1158 751 1158 786 q 1124 717 1158 717 q 1089 751 1089 717 q 1124 786 1089 786 m 272 893 q 238 858 238 893 q 272 824 238 824 q 307 858 307 824 q 272 893 307 893 m 386 974 q 351 939 351 974 q 386 904 351 904 q 421 939 421 904 q 386 974 421 974 m 515 1019 q 481 985 481 1019 q 515 950 481 950 q 550 985 550 950 q 515 1019 550 1019 m 111 522 q 76 488 76 522 q 111 453 76 453 q 146 488 146 453 q 111 522 146 522 m 131 658 q 96 624 96 658 q 131 589 96 589 q 165 624 165 589 q 131 658 165 658 m 185 786 q 150 751 150 786 q 185 717 150 717 q 219 751 219 717 q 185 786 219 786 m 272 82 q 238 117 238 82 q 272 151 238 151 q 307 117 307 151 q 272 82 307 82 m 386 1 q 351 36 351 1 q 386 71 351 71 q 421 36 421 71 q 386 1 421 1 m 515 -46 q 481 -11 481 -46 q 515 24 481 24 q 550 -11 550 24 q 515 -46 550 -46 m 654 -56 q 619 -21 619 -56 q 654 14 619 14 q 689 -21 689 14 q 654 -56 689 -56 m 131 315 q 96 350 96 315 q 131 385 96 385 q 165 350 165 385 q 131 315 165 315 m 185 189 q 150 224 150 189 q 185 258 150 258 q 219 224 219 258 q 185 189 219 189 m 1018 99 q 1053 133 1053 99 q 1018 168 1053 168 q 983 133 983 168 q 1018 99 983 99 m 1178 315 q 1213 350 1213 315 q 1178 385 1213 385 q 1143 350 1143 385 q 1178 315 1143 315 m 1124 189 q 1158 224 1158 189 q 1124 258 1158 258 q 1089 224 1089 258 q 1124 189 1089 189 z "},"A":{"ha":1210,"x_min":49,"x_max":1161,"o":"m 504 858 q 539 893 504 893 q 574 858 574 893 q 539 824 574 824 q 504 858 504 824 m 440 736 q 475 771 440 771 q 510 736 510 771 q 475 701 510 701 q 440 736 440 701 m 375 614 q 410 649 375 649 q 444 614 444 649 q 410 579 444 579 q 375 614 375 579 m 310 492 q 344 526 310 526 q 379 492 379 526 q 344 457 379 457 q 310 492 310 457 m 179 246 q 214 281 179 281 q 249 246 249 281 q 214 211 249 211 q 179 246 179 211 m 114 124 q 149 158 114 158 q 183 124 183 158 q 149 89 183 89 q 114 124 114 89 m 49 0 q 83 35 49 35 q 118 0 118 35 q 83 -35 118 -35 q 49 0 49 -35 m 639 982 q 604 1017 639 1017 q 569 981 569 1015 q 606 947 571 946 q 639 982 640 947 m 704 860 q 669 893 704 894 q 635 858 635 893 q 671 824 636 824 q 704 860 706 825 m 769 738 q 735 771 769 772 q 700 736 700 771 q 736 701 701 701 q 769 738 771 703 m 835 614 q 800 649 835 649 q 765 613 765 647 q 801 579 767 578 q 835 614 836 579 m 900 492 q 865 526 900 526 q 831 490 831 525 q 867 457 832 456 q 900 492 901 457 m 244 368 q 279 403 244 403 q 314 368 314 403 q 279 333 314 333 q 244 368 244 333 m 965 369 q 931 403 965 404 q 896 368 896 403 q 931 333 896 333 q 965 369 965 335 m 835 369 q 800 403 835 404 q 765 368 765 403 q 801 333 767 333 q 835 369 836 335 m 704 369 q 669 403 704 404 q 635 368 635 403 q 671 333 636 333 q 704 369 706 335 m 574 369 q 539 403 574 404 q 504 368 504 403 q 540 333 506 333 q 574 369 575 335 m 444 369 q 408 403 443 404 q 375 368 374 403 q 410 333 375 333 q 444 369 444 335 m 1031 246 q 996 281 1029 281 q 961 246 961 281 q 996 211 961 211 q 1031 246 1031 211 m 1096 124 q 1060 158 1094 158 q 1026 122 1025 157 q 1061 89 1026 88 q 1096 124 1096 89 m 1161 1 q 1125 35 1160 36 q 1092 0 1090 35 q 1126 -35 1092 -35 q 1161 1 1161 -33 z "},"B":{"ha":919,"x_min":104,"x_max":857,"o":"m 685 82 q 719 47 719 82 q 685 13 719 13 q 650 47 650 13 q 685 82 650 82 m 785 176 q 819 142 819 176 q 785 107 819 107 q 750 142 750 107 q 785 176 750 176 m 822 308 q 857 274 857 308 q 822 239 857 239 q 788 274 788 239 q 822 308 788 308 m 785 440 q 819 406 819 440 q 785 371 819 371 q 750 406 750 371 q 785 440 750 440 m 685 536 q 719 501 719 536 q 685 467 719 467 q 650 501 650 467 q 685 536 650 536 m 553 39 q 588 4 588 39 q 553 -31 588 -31 q 518 4 518 -31 q 553 39 518 39 m 417 36 q 451 1 451 36 q 417 -33 451 -33 q 382 1 382 -33 q 417 36 382 36 m 278 36 q 313 1 313 36 q 278 -33 313 -33 q 243 1 243 -33 q 278 36 243 36 m 139 36 q 174 1 174 36 q 139 -33 174 -33 q 104 1 104 -33 q 139 36 104 36 m 556 592 q 590 557 590 592 q 556 522 590 522 q 521 557 521 522 q 556 592 521 592 m 417 592 q 451 557 451 592 q 417 522 451 522 q 382 557 382 522 q 417 592 382 592 m 278 592 q 313 557 313 592 q 278 522 313 522 q 243 557 243 522 q 278 592 243 592 m 139 592 q 174 557 174 592 q 139 522 174 522 q 104 557 104 522 q 139 592 104 592 m 671 922 q 706 888 706 922 q 671 853 706 853 q 636 888 636 853 q 671 922 636 922 m 718 796 q 753 761 753 796 q 718 726 753 726 q 683 761 683 726 q 718 796 683 796 m 674 668 q 708 633 708 668 q 674 599 708 599 q 639 633 639 599 q 674 668 639 668 m 556 994 q 590 960 590 994 q 556 925 590 925 q 521 960 521 925 q 556 994 521 994 m 417 1008 q 451 974 451 1008 q 417 939 451 939 q 382 974 382 939 q 417 1008 382 1008 m 278 1008 q 313 974 313 1008 q 278 939 313 939 q 243 974 243 939 q 278 1008 243 1008 m 139 1008 q 174 974 174 1008 q 139 939 174 939 q 104 974 104 939 q 139 1008 104 1008 m 174 140 q 139 106 174 106 q 104 140 104 106 q 139 175 104 175 q 174 140 174 175 m 174 279 q 139 244 174 244 q 104 279 104 244 q 139 314 104 314 q 174 279 174 314 m 174 418 q 139 383 174 383 q 104 418 104 383 q 139 453 104 453 q 174 418 174 453 m 174 696 q 139 661 174 661 q 104 696 104 661 q 139 731 104 731 q 174 696 174 731 m 174 835 q 139 800 174 800 q 104 835 104 800 q 139 869 104 869 q 174 835 174 869 z "},"C":{"ha":1128,"x_min":76,"x_max":1071,"o":"m 1036 893 q 1071 858 1071 893 q 1036 824 1071 824 q 1001 858 1001 824 q 1036 893 1001 893 m 922 974 q 957 939 957 974 q 922 904 957 904 q 888 939 888 904 q 922 974 888 974 m 793 1019 q 828 985 828 1019 q 793 950 828 950 q 758 985 758 950 q 793 1019 758 1019 m 654 1031 q 689 996 689 1031 q 654 961 689 961 q 619 996 619 961 q 654 1031 619 1031 m 272 893 q 238 858 238 893 q 272 824 238 824 q 307 858 307 824 q 272 893 307 893 m 386 974 q 351 939 351 974 q 386 904 351 904 q 421 939 421 904 q 386 974 421 974 m 515 1019 q 481 985 481 1019 q 515 950 481 950 q 550 985 550 950 q 515 1019 550 1019 m 111 522 q 76 488 76 522 q 111 453 76 453 q 146 488 146 453 q 111 522 146 522 m 131 658 q 96 624 96 658 q 131 589 96 589 q 165 624 165 589 q 131 658 165 658 m 185 786 q 150 751 150 786 q 185 717 150 717 q 219 751 219 717 q 185 786 219 786 m 272 82 q 238 117 238 82 q 272 151 238 151 q 307 117 307 151 q 272 82 307 82 m 386 1 q 351 36 351 1 q 386 71 351 71 q 421 36 421 71 q 386 1 421 1 m 515 -46 q 481 -11 481 -46 q 515 24 481 24 q 550 -11 550 24 q 515 -46 550 -46 m 654 -56 q 619 -21 619 -56 q 654 14 619 14 q 689 -21 689 14 q 654 -56 689 -56 m 131 315 q 96 350 96 315 q 131 385 96 385 q 165 350 165 385 q 131 315 165 315 m 185 189 q 150 224 150 189 q 185 258 150 258 q 219 224 219 258 q 185 189 219 189 m 1036 82 q 1071 117 1071 82 q 1036 151 1071 151 q 1001 117 1001 151 q 1036 82 1001 82 m 922 1 q 957 36 957 1 q 922 71 957 71 q 888 36 888 71 q 922 1 888 1 m 793 -46 q 828 -11 828 -46 q 793 24 828 24 q 758 -11 758 24 q 793 -46 758 -46 z "},"D":{"ha":1071,"x_min":104,"x_max":1001,"o":"m 556 39 q 590 4 590 39 q 556 -31 590 -31 q 521 4 521 -31 q 556 39 521 39 m 417 36 q 451 1 451 36 q 417 -33 451 -33 q 382 1 382 -33 q 417 36 382 36 m 278 36 q 313 1 313 36 q 278 -33 313 -33 q 243 1 243 -33 q 278 36 243 36 m 139 36 q 174 1 174 36 q 139 -33 174 -33 q 104 1 104 -33 q 139 36 104 36 m 139 592 q 174 557 174 592 q 139 522 174 522 q 104 557 104 522 q 139 592 104 592 m 689 964 q 724 929 724 964 q 689 894 724 894 q 654 929 654 894 q 689 964 654 964 m 806 889 q 840 854 840 889 q 806 819 840 819 q 771 854 771 819 q 806 889 771 889 m 893 782 q 928 747 928 782 q 893 713 928 713 q 858 747 858 713 q 893 782 858 782 m 949 656 q 983 621 983 656 q 949 586 983 586 q 914 621 914 586 q 949 656 914 656 m 967 518 q 1001 483 1001 518 q 967 449 1001 449 q 932 483 932 449 q 967 518 932 518 m 950 381 q 985 346 985 381 q 950 311 985 311 q 915 346 915 311 q 950 381 915 381 m 896 253 q 931 218 931 253 q 896 183 931 183 q 861 218 861 183 q 896 253 861 253 m 807 147 q 842 113 842 147 q 807 78 842 78 q 772 113 772 78 q 807 147 772 147 m 689 74 q 724 39 724 74 q 689 4 724 4 q 654 39 654 4 q 689 74 654 74 m 556 1001 q 590 967 590 1001 q 556 932 590 932 q 521 967 521 932 q 556 1001 521 1001 m 417 1008 q 451 974 451 1008 q 417 939 451 939 q 382 974 382 939 q 417 1008 382 1008 m 278 1008 q 313 974 313 1008 q 278 939 313 939 q 243 974 243 939 q 278 1008 243 1008 m 139 1008 q 174 974 174 1008 q 139 939 174 939 q 104 974 104 939 q 139 1008 104 1008 m 174 140 q 139 106 174 106 q 104 140 104 106 q 139 175 104 175 q 174 140 174 175 m 174 279 q 139 244 174 244 q 104 279 104 244 q 139 314 104 314 q 174 279 174 314 m 174 418 q 139 383 174 383 q 104 418 104 383 q 139 453 104 453 q 174 418 174 453 m 174 696 q 139 661 174 661 q 104 696 104 661 q 139 731 104 731 q 174 696 174 731 m 174 835 q 139 800 174 800 q 104 835 104 800 q 139 869 104 869 q 174 835 174 869 z "},"E":{"ha":806,"x_min":104,"x_max":729,"o":"m 278 36 q 313 1 313 36 q 278 -33 313 -33 q 243 1 243 -33 q 278 36 243 36 m 139 36 q 174 1 174 36 q 139 -33 174 -33 q 104 1 104 -33 q 139 36 104 36 m 139 592 q 174 557 174 592 q 139 522 174 522 q 104 557 104 522 q 139 592 104 592 m 278 1008 q 313 974 313 1008 q 278 939 313 939 q 243 974 243 939 q 278 1008 243 1008 m 417 36 q 451 1 451 36 q 417 -33 451 -33 q 382 1 382 -33 q 417 36 382 36 m 278 592 q 313 557 313 592 q 278 522 313 522 q 243 557 243 522 q 278 592 243 592 m 417 1008 q 451 974 451 1008 q 417 939 451 939 q 382 974 382 939 q 417 1008 382 1008 m 556 36 q 590 1 590 36 q 556 -33 590 -33 q 521 1 521 -33 q 556 36 521 36 m 417 592 q 451 557 451 592 q 417 522 451 522 q 382 557 382 522 q 417 592 382 592 m 556 1008 q 590 974 590 1008 q 556 939 590 939 q 521 974 521 939 q 556 1008 521 1008 m 694 36 q 729 1 729 36 q 694 -33 729 -33 q 660 1 660 -33 q 694 36 660 36 m 556 592 q 590 557 590 592 q 556 522 590 522 q 521 557 521 522 q 556 592 521 592 m 694 1008 q 729 974 729 1008 q 694 939 729 939 q 660 974 660 939 q 694 1008 660 1008 m 139 1008 q 174 974 174 1008 q 139 939 174 939 q 104 974 104 939 q 139 1008 104 1008 m 174 140 q 139 106 174 106 q 104 140 104 106 q 139 175 104 175 q 174 140 174 175 m 174 279 q 139 244 174 244 q 104 279 104 244 q 139 314 104 314 q 174 279 174 314 m 174 418 q 139 383 174 383 q 104 418 104 383 q 139 453 104 453 q 174 418 174 453 m 174 696 q 139 661 174 661 q 104 696 104 661 q 139 731 104 731 q 174 696 174 731 m 174 835 q 139 800 174 800 q 104 835 104 800 q 139 869 104 869 q 174 835 174 869 z "},"F":{"ha":792,"x_min":104,"x_max":729,"o":"m 139 36 q 174 1 174 36 q 139 -33 174 -33 q 104 1 104 -33 q 139 36 104 36 m 139 592 q 174 557 174 592 q 139 522 174 522 q 104 557 104 522 q 139 592 104 592 m 278 1008 q 313 974 313 1008 q 278 939 313 939 q 243 974 243 939 q 278 1008 243 1008 m 278 592 q 313 557 313 592 q 278 522 313 522 q 243 557 243 522 q 278 592 243 592 m 417 1008 q 451 974 451 1008 q 417 939 451 939 q 382 974 382 939 q 417 1008 382 1008 m 417 592 q 451 557 451 592 q 417 522 451 522 q 382 557 382 522 q 417 592 382 592 m 556 1008 q 590 974 590 1008 q 556 939 590 939 q 521 974 521 939 q 556 1008 521 1008 m 556 592 q 590 557 590 592 q 556 522 590 522 q 521 557 521 522 q 556 592 521 592 m 694 1008 q 729 974 729 1008 q 694 939 729 939 q 660 974 660 939 q 694 1008 660 1008 m 139 1008 q 174 974 174 1008 q 139 939 174 939 q 104 974 104 939 q 139 1008 104 1008 m 174 140 q 139 106 174 106 q 104 140 104 106 q 139 175 104 175 q 174 140 174 175 m 174 279 q 139 244 174 244 q 104 279 104 244 q 139 314 104 314 q 174 279 174 314 m 174 418 q 139 383 174 383 q 104 418 104 383 q 139 453 104 453 q 174 418 174 453 m 174 696 q 139 661 174 661 q 104 696 104 661 q 139 731 104 731 q 174 696 174 731 m 174 835 q 139 800 174 800 q 104 835 104 800 q 139 869 104 869 q 174 835 174 869 z "},"G":{"ha":1301,"x_min":74,"x_max":1229,"o":"m 1194 522 q 1229 488 1229 522 q 1194 453 1229 453 q 1160 488 1160 453 q 1194 522 1160 522 m 1056 522 q 1090 488 1090 522 q 1056 453 1090 453 q 1021 488 1021 453 q 1056 522 1021 522 m 917 522 q 951 488 951 522 q 917 453 951 453 q 882 488 882 453 q 917 522 882 522 m 778 522 q 813 488 813 522 q 778 453 813 453 q 743 488 743 453 q 778 522 743 522 m 639 522 q 674 488 674 522 q 639 453 674 453 q 604 488 604 453 q 639 522 604 522 m 1033 893 q 1068 858 1068 893 q 1033 824 1068 824 q 999 858 999 824 q 1033 893 999 893 m 919 974 q 954 939 954 974 q 919 904 954 904 q 885 939 885 904 q 919 974 885 974 m 790 1019 q 825 985 825 1019 q 790 950 825 950 q 756 985 756 950 q 790 1019 756 1019 m 651 1031 q 686 996 686 1031 q 651 961 686 961 q 617 996 617 961 q 651 1031 617 1031 m 269 893 q 235 858 235 893 q 269 824 235 824 q 304 858 304 824 q 269 893 304 893 m 383 974 q 349 939 349 974 q 383 904 349 904 q 418 939 418 904 q 383 974 418 974 m 513 1019 q 478 985 478 1019 q 513 950 478 950 q 547 985 547 950 q 513 1019 547 1019 m 108 522 q 74 488 74 522 q 108 453 74 453 q 143 488 143 453 q 108 522 143 522 m 128 658 q 93 624 93 658 q 128 589 93 589 q 163 624 163 589 q 128 658 163 658 m 182 786 q 147 751 147 786 q 182 717 147 717 q 217 751 217 717 q 182 786 217 786 m 269 82 q 235 117 235 82 q 269 151 235 151 q 304 117 304 151 q 269 82 304 82 m 383 1 q 349 36 349 1 q 383 71 349 71 q 418 36 418 71 q 383 1 418 1 m 513 -46 q 478 -11 478 -46 q 513 24 478 24 q 547 -11 547 24 q 513 -46 547 -46 m 651 -56 q 617 -21 617 -56 q 651 14 617 14 q 686 -21 686 14 q 651 -56 686 -56 m 128 315 q 93 350 93 315 q 128 385 93 385 q 163 350 163 385 q 128 315 163 315 m 182 189 q 147 224 147 189 q 182 258 147 258 q 217 224 217 258 q 182 189 217 189 m 1033 82 q 1068 117 1068 82 q 1033 151 1068 151 q 999 117 999 151 q 1033 82 999 82 m 919 1 q 954 36 954 1 q 919 71 954 71 q 885 36 885 71 q 919 1 885 1 m 790 -46 q 825 -11 825 -46 q 790 24 825 24 q 756 -11 756 24 q 790 -46 756 -46 m 1175 315 q 1210 350 1210 315 q 1175 385 1210 385 q 1140 350 1140 385 q 1175 315 1140 315 m 1121 189 q 1156 224 1156 189 q 1121 258 1156 258 q 1086 224 1086 258 q 1121 189 1086 189 z "},"H":{"ha":972,"x_min":104,"x_max":868,"o":"m 139 36 q 174 1 174 36 q 139 -33 174 -33 q 104 1 104 -33 q 139 36 104 36 m 139 592 q 174 557 174 592 q 139 522 174 522 q 104 557 104 522 q 139 592 104 592 m 278 592 q 313 557 313 592 q 278 522 313 522 q 243 557 243 522 q 278 592 243 592 m 417 592 q 451 557 451 592 q 417 522 451 522 q 382 557 382 522 q 417 592 382 592 m 556 592 q 590 557 590 592 q 556 522 590 522 q 521 557 521 522 q 556 592 521 592 m 694 592 q 729 557 729 592 q 694 522 729 522 q 660 557 660 522 q 694 592 660 592 m 833 592 q 868 557 868 592 q 833 522 868 522 q 799 557 799 522 q 833 592 799 592 m 139 1008 q 174 974 174 1008 q 139 939 174 939 q 104 974 104 939 q 139 1008 104 1008 m 174 140 q 139 106 174 106 q 104 140 104 106 q 139 175 104 175 q 174 140 174 175 m 174 279 q 139 244 174 244 q 104 279 104 244 q 139 314 104 314 q 174 279 174 314 m 174 418 q 139 383 174 383 q 104 418 104 383 q 139 453 104 453 q 174 418 174 453 m 174 696 q 139 661 174 661 q 104 696 104 661 q 139 731 104 731 q 174 696 174 731 m 174 835 q 139 800 174 800 q 104 835 104 800 q 139 869 104 869 q 174 835 174 869 m 833 36 q 868 1 868 36 q 833 -33 868 -33 q 799 1 799 -33 q 833 36 799 36 m 833 1008 q 868 974 868 1008 q 833 939 868 939 q 799 974 799 939 q 833 1008 799 1008 m 868 140 q 833 106 868 106 q 799 140 799 106 q 833 175 799 175 q 868 140 868 175 m 868 279 q 833 244 868 244 q 799 279 799 244 q 833 314 799 314 q 868 279 868 314 m 868 418 q 833 383 868 383 q 799 418 799 383 q 833 453 799 453 q 868 418 868 453 m 868 696 q 833 661 868 661 q 799 696 799 661 q 833 731 799 731 q 868 696 868 731 m 868 835 q 833 800 868 800 q 799 835 799 800 q 833 869 799 869 q 868 835 868 869 z "},"I":{"ha":278,"x_min":104,"x_max":174,"o":"m 139 592 q 174 557 174 592 q 139 522 174 522 q 104 557 104 522 q 139 592 104 592 m 139 36 q 174 1 174 36 q 139 -33 174 -33 q 104 1 104 -33 q 139 36 104 36 m 139 1008 q 174 974 174 1008 q 139 939 174 939 q 104 974 104 939 q 139 1008 104 1008 m 174 140 q 139 106 174 106 q 104 140 104 106 q 139 175 104 175 q 174 140 174 175 m 174 279 q 139 244 174 244 q 104 279 104 244 q 139 314 104 314 q 174 279 174 314 m 174 418 q 139 383 174 383 q 104 418 104 383 q 139 453 104 453 q 174 418 174 453 m 174 696 q 139 661 174 661 q 104 696 104 661 q 139 731 104 731 q 174 696 174 731 m 174 835 q 139 800 174 800 q 104 835 104 800 q 139 869 104 869 q 174 835 174 869 z "},"J":{"ha":815,"x_min":49,"x_max":711,"o":"m 676 592 q 711 557 711 592 q 676 522 711 522 q 642 557 642 522 q 676 592 642 592 m 572 68 q 607 33 607 68 q 572 -1 607 -1 q 538 33 538 -1 q 572 68 538 68 m 447 11 q 482 -24 482 11 q 447 -58 482 -58 q 413 -24 413 -58 q 447 11 413 11 m 308 11 q 343 -24 343 11 q 308 -58 343 -58 q 274 -24 274 -58 q 308 11 274 11 m 183 67 q 218 32 218 67 q 183 -3 218 -3 q 149 32 149 -3 q 183 67 149 67 m 101 176 q 136 142 136 176 q 101 107 136 107 q 67 142 67 107 q 101 176 67 176 m 83 314 q 118 279 118 314 q 83 244 118 244 q 49 279 49 244 q 83 314 49 314 m 676 1008 q 711 974 711 1008 q 676 939 711 939 q 642 974 642 939 q 676 1008 642 1008 m 690 142 q 656 107 690 107 q 621 142 621 107 q 656 176 621 176 q 690 142 690 176 m 711 279 q 676 244 711 244 q 642 279 642 244 q 676 314 642 314 q 711 279 711 314 m 711 418 q 676 383 711 383 q 642 418 642 383 q 676 453 642 453 q 711 418 711 453 m 711 696 q 676 661 711 661 q 642 696 642 661 q 676 731 642 731 q 711 696 711 731 m 711 835 q 676 800 711 800 q 642 835 642 800 q 676 869 642 869 q 711 835 711 869 z "},"K":{"ha":846,"x_min":104,"x_max":794,"o":"m 139 592 q 174 557 174 592 q 139 522 174 522 q 104 557 104 522 q 139 592 104 592 m 139 36 q 174 1 174 36 q 139 -33 174 -33 q 104 1 104 -33 q 139 36 104 36 m 139 1008 q 174 974 174 1008 q 139 939 174 939 q 104 974 104 939 q 139 1008 104 1008 m 174 140 q 139 106 174 106 q 104 140 104 106 q 139 175 104 175 q 174 140 174 175 m 174 279 q 139 244 174 244 q 104 279 104 244 q 139 314 104 314 q 174 279 174 314 m 174 418 q 139 383 174 383 q 104 418 104 383 q 139 453 104 453 q 174 418 174 453 m 174 696 q 139 661 174 661 q 104 696 104 661 q 139 731 104 731 q 174 696 174 731 m 174 835 q 139 800 174 800 q 104 835 104 800 q 139 869 104 869 q 174 835 174 869 m 618 889 q 583 854 618 854 q 549 889 549 854 q 583 924 549 924 q 618 889 618 924 m 250 604 q 215 640 215 604 q 250 674 215 674 q 285 639 285 674 q 250 604 285 604 m 361 688 q 326 722 326 688 q 361 757 326 757 q 396 722 396 757 q 361 688 396 688 m 472 771 q 438 806 438 771 q 472 840 438 840 q 507 806 507 840 q 472 771 507 771 m 694 938 q 660 972 660 938 q 694 1007 660 1007 q 729 972 729 1007 q 694 938 729 938 m 553 151 q 588 186 588 151 q 553 221 588 221 q 518 186 518 221 q 553 151 518 151 m 656 58 q 690 93 690 58 q 656 128 690 128 q 621 93 621 128 q 656 58 621 58 m 760 -35 q 794 0 794 -35 q 760 35 794 35 q 725 0 725 35 q 760 -35 725 -35 m 276 464 q 242 499 276 499 q 207 464 207 499 q 243 429 207 429 q 276 464 278 429 m 381 371 q 346 406 381 406 q 311 371 311 406 q 346 336 311 336 q 381 371 381 336 m 483 278 q 449 313 483 313 q 414 278 414 313 q 449 243 414 243 q 483 278 483 243 z "},"L":{"ha":764,"x_min":104,"x_max":729,"o":"m 139 592 q 174 557 174 592 q 139 522 174 522 q 104 557 104 522 q 139 592 104 592 m 139 36 q 174 1 174 36 q 139 -33 174 -33 q 104 1 104 -33 q 139 36 104 36 m 278 36 q 313 1 313 36 q 278 -33 313 -33 q 243 1 243 -33 q 278 36 243 36 m 417 36 q 451 1 451 36 q 417 -33 451 -33 q 382 1 382 -33 q 417 36 382 36 m 556 36 q 590 1 590 36 q 556 -33 590 -33 q 521 1 521 -33 q 556 36 521 36 m 694 36 q 729 1 729 36 q 694 -33 729 -33 q 660 1 660 -33 q 694 36 660 36 m 139 1008 q 174 974 174 1008 q 139 939 174 939 q 104 974 104 939 q 139 1008 104 1008 m 174 140 q 139 106 174 106 q 104 140 104 106 q 139 175 104 175 q 174 140 174 175 m 174 279 q 139 244 174 244 q 104 279 104 244 q 139 314 104 314 q 174 279 174 314 m 174 418 q 139 383 174 383 q 104 418 104 383 q 139 453 104 453 q 174 418 174 453 m 174 696 q 139 661 174 661 q 104 696 104 661 q 139 731 104 731 q 174 696 174 731 m 174 835 q 139 800 174 800 q 104 835 104 800 q 139 869 104 869 q 174 835 174 869 z "},"M":{"ha":1140,"x_min":103,"x_max":1038,"o":"m 138 592 q 172 557 172 592 q 138 522 172 522 q 103 557 103 522 q 138 592 103 592 m 138 36 q 172 1 172 36 q 138 -33 172 -33 q 103 1 103 -33 q 138 36 103 36 m 138 1008 q 172 974 172 1008 q 138 939 172 939 q 103 974 103 939 q 138 1008 103 1008 m 224 899 q 258 864 258 899 q 224 829 258 829 q 189 864 189 829 q 224 899 189 899 m 311 790 q 346 756 346 790 q 311 721 346 721 q 276 756 276 721 q 311 790 276 790 m 397 682 q 432 647 432 682 q 397 613 432 613 q 363 647 363 613 q 397 682 363 682 m 483 574 q 518 539 518 574 q 483 504 518 504 q 449 539 449 504 q 483 574 449 574 m 571 465 q 606 431 606 465 q 571 396 606 396 q 536 431 536 396 q 571 465 536 465 m 172 140 q 138 106 172 106 q 103 140 103 106 q 138 175 103 175 q 172 140 172 175 m 172 279 q 138 244 172 244 q 103 279 103 244 q 138 314 103 314 q 172 279 172 314 m 172 418 q 138 383 172 383 q 103 418 103 383 q 138 453 103 453 q 172 418 172 453 m 172 696 q 138 661 172 661 q 103 696 103 661 q 138 731 103 731 q 172 696 172 731 m 172 835 q 138 800 172 800 q 103 835 103 800 q 138 869 103 869 q 172 835 172 869 m 1003 592 q 968 557 968 592 q 1003 522 968 522 q 1038 557 1038 522 q 1003 592 1038 592 m 1003 36 q 968 1 968 36 q 1003 -33 968 -33 q 1038 1 1038 -33 q 1003 36 1038 36 m 1003 1008 q 968 974 968 1008 q 1003 939 968 939 q 1038 974 1038 939 q 1003 1008 1038 1008 m 917 899 q 882 864 882 899 q 917 829 882 829 q 951 864 951 829 q 917 899 951 899 m 831 790 q 796 756 796 790 q 831 721 796 721 q 865 756 865 721 q 831 790 865 790 m 743 682 q 708 647 708 682 q 743 613 708 613 q 778 647 778 613 q 743 682 778 682 m 657 574 q 622 539 622 574 q 657 504 622 504 q 692 539 692 504 q 657 574 692 574 m 968 140 q 1003 106 968 106 q 1038 140 1038 106 q 1003 175 1038 175 q 968 140 968 175 m 968 279 q 1003 244 968 244 q 1038 279 1038 244 q 1003 314 1038 314 q 968 279 968 314 m 968 418 q 1003 383 968 383 q 1038 418 1038 383 q 1003 453 1038 453 q 968 418 968 453 m 968 696 q 1003 661 968 661 q 1038 696 1038 661 q 1003 731 1038 731 q 968 696 968 731 m 968 835 q 1003 800 968 800 q 1038 835 1038 800 q 1003 869 1038 869 q 968 835 968 869 z "},"N":{"ha":1063,"x_min":103,"x_max":960,"o":"m 138 592 q 103 557 103 592 q 138 522 103 522 q 172 557 172 522 q 138 592 172 592 m 138 36 q 103 1 103 36 q 138 -33 103 -33 q 172 1 172 -33 q 138 36 172 36 m 103 140 q 138 106 103 106 q 172 140 172 106 q 138 175 172 175 q 103 140 103 175 m 103 279 q 138 244 103 244 q 172 279 172 244 q 138 314 172 314 q 103 279 103 314 m 103 418 q 138 383 103 383 q 172 418 172 383 q 138 453 172 453 q 103 418 103 453 m 103 696 q 138 661 103 661 q 172 696 172 661 q 138 731 172 731 q 103 696 103 731 m 103 835 q 138 800 103 800 q 172 835 172 800 q 138 869 172 869 q 103 835 103 869 m 925 592 q 890 557 890 592 q 925 522 890 522 q 960 557 960 522 q 925 592 960 592 m 138 1008 q 103 974 103 1008 q 138 939 103 939 q 172 974 172 939 q 138 1008 172 1008 m 225 900 q 190 865 190 900 q 225 831 190 831 q 260 865 260 831 q 225 900 260 900 m 313 792 q 278 757 278 792 q 313 722 278 722 q 347 757 347 722 q 313 792 347 792 m 400 683 q 365 649 365 683 q 400 614 365 614 q 435 649 435 614 q 400 683 435 683 m 488 575 q 453 540 453 575 q 488 506 453 506 q 522 540 522 506 q 488 575 522 575 m 575 468 q 540 433 540 468 q 575 399 540 399 q 610 433 610 399 q 575 468 610 468 m 663 360 q 628 325 628 360 q 663 290 628 290 q 697 325 697 290 q 663 360 697 360 m 750 251 q 715 217 715 251 q 750 182 715 182 q 785 217 785 182 q 750 251 785 251 m 838 143 q 803 108 803 143 q 838 74 803 74 q 872 108 872 74 q 838 143 872 143 m 925 36 q 890 1 890 36 q 925 -33 890 -33 q 960 1 960 -33 q 925 36 960 36 m 925 1008 q 890 974 890 1008 q 925 939 890 939 q 960 974 960 939 q 925 1008 960 1008 m 890 140 q 925 106 890 106 q 960 140 960 106 q 925 175 960 175 q 890 140 890 175 m 890 279 q 925 244 890 244 q 960 279 960 244 q 925 314 960 314 q 890 279 890 314 m 890 418 q 925 383 890 383 q 960 418 960 383 q 925 453 960 453 q 890 418 890 453 m 890 696 q 925 661 890 661 q 960 696 960 661 q 925 731 960 731 q 890 696 890 731 m 890 835 q 925 800 890 800 q 960 835 960 800 q 925 869 960 869 q 890 835 890 869 z "},"O":{"ha":1308,"x_min":76,"x_max":1232,"o":"m 1036 893 q 1071 858 1071 893 q 1036 824 1071 824 q 1001 858 1001 824 q 1036 893 1001 893 m 922 974 q 957 939 957 974 q 922 904 957 904 q 888 939 888 904 q 922 974 888 974 m 793 1019 q 828 985 828 1019 q 793 950 828 950 q 758 985 758 950 q 793 1019 758 1019 m 654 1031 q 689 996 689 1031 q 654 961 689 961 q 619 996 619 961 q 654 1031 619 1031 m 1197 522 q 1232 488 1232 522 q 1197 453 1232 453 q 1163 488 1163 453 q 1197 522 1163 522 m 1178 658 q 1213 624 1213 658 q 1178 589 1213 589 q 1143 624 1143 589 q 1178 658 1143 658 m 1124 786 q 1158 751 1158 786 q 1124 717 1158 717 q 1089 751 1089 717 q 1124 786 1089 786 m 272 893 q 238 858 238 893 q 272 824 238 824 q 307 858 307 824 q 272 893 307 893 m 386 974 q 351 939 351 974 q 386 904 351 904 q 421 939 421 904 q 386 974 421 974 m 515 1019 q 481 985 481 1019 q 515 950 481 950 q 550 985 550 950 q 515 1019 550 1019 m 111 522 q 76 488 76 522 q 111 453 76 453 q 146 488 146 453 q 111 522 146 522 m 131 658 q 96 624 96 658 q 131 589 96 589 q 165 624 165 589 q 131 658 165 658 m 185 786 q 150 751 150 786 q 185 717 150 717 q 219 751 219 717 q 185 786 219 786 m 272 82 q 238 117 238 82 q 272 151 238 151 q 307 117 307 151 q 272 82 307 82 m 386 1 q 351 36 351 1 q 386 71 351 71 q 421 36 421 71 q 386 1 421 1 m 515 -46 q 481 -11 481 -46 q 515 24 481 24 q 550 -11 550 24 q 515 -46 550 -46 m 654 -56 q 619 -21 619 -56 q 654 14 619 14 q 689 -21 689 14 q 654 -56 689 -56 m 131 315 q 96 350 96 315 q 131 385 96 385 q 165 350 165 385 q 131 315 165 315 m 185 189 q 150 224 150 189 q 185 258 150 258 q 219 224 219 258 q 185 189 219 189 m 1036 82 q 1071 117 1071 82 q 1036 151 1071 151 q 1001 117 1001 151 q 1036 82 1001 82 m 922 1 q 957 36 957 1 q 922 71 957 71 q 888 36 888 71 q 922 1 888 1 m 793 -46 q 828 -11 828 -46 q 793 24 828 24 q 758 -11 758 24 q 793 -46 758 -46 m 1178 315 q 1213 350 1213 315 q 1178 385 1213 385 q 1143 350 1143 385 q 1178 315 1143 315 m 1124 189 q 1158 224 1158 189 q 1124 258 1158 258 q 1089 224 1089 258 q 1124 189 1089 189 z "},"P":{"ha":826,"x_min":104,"x_max":764,"o":"m 668 847 q 703 882 703 847 q 668 917 703 917 q 633 882 633 917 q 668 847 633 847 m 728 725 q 763 760 763 725 q 728 794 763 794 q 693 760 693 794 q 728 725 693 725 m 729 586 q 764 621 764 586 q 729 656 764 656 q 694 621 694 656 q 729 586 694 586 m 669 463 q 704 497 704 463 q 669 532 704 532 q 635 497 635 532 q 669 463 635 463 m 554 925 q 589 960 589 925 q 554 994 589 994 q 519 960 519 994 q 554 925 519 925 m 417 939 q 451 974 451 939 q 417 1008 451 1008 q 382 974 382 1008 q 417 939 382 939 m 278 939 q 313 974 313 939 q 278 1008 313 1008 q 243 974 243 1008 q 278 939 243 939 m 139 939 q 174 974 174 939 q 139 1008 174 1008 q 104 974 104 1008 q 139 939 104 939 m 553 390 q 588 425 588 390 q 553 460 588 460 q 518 425 518 460 q 553 390 518 390 m 415 382 q 450 417 450 382 q 415 451 450 451 q 381 417 381 451 q 415 382 381 382 m 276 382 q 311 417 311 382 q 276 451 311 451 q 242 417 242 451 q 276 382 242 382 m 139 383 q 174 418 174 383 q 139 453 174 453 q 104 418 104 453 q 139 383 104 383 m 139 -33 q 174 1 174 -33 q 139 36 174 36 q 104 1 104 36 q 139 -33 104 -33 m 174 835 q 139 869 174 869 q 104 835 104 869 q 139 800 104 800 q 174 835 174 800 m 174 696 q 139 731 174 731 q 104 696 104 731 q 139 661 104 661 q 174 696 174 661 m 174 557 q 139 592 174 592 q 104 557 104 592 q 139 522 104 522 q 174 557 174 522 m 174 279 q 139 314 174 314 q 104 279 104 314 q 139 244 104 244 q 174 279 174 244 m 174 140 q 139 175 174 175 q 104 140 104 175 q 139 106 104 106 q 174 140 174 106 z "},"Q":{"ha":1308,"x_min":76,"x_max":1232,"o":"m 922 71 q 957 36 957 71 q 922 1 957 1 q 888 36 888 1 q 922 71 888 71 m 825 169 q 860 135 860 169 q 825 100 860 100 q 790 135 790 100 q 825 169 790 169 m 726 268 q 761 233 761 268 q 726 199 761 199 q 692 233 692 199 q 726 268 692 268 m 1119 -126 q 1154 -161 1154 -126 q 1119 -196 1154 -196 q 1085 -161 1085 -196 q 1119 -126 1085 -126 m 1021 -28 q 1056 -62 1056 -28 q 1021 -97 1056 -97 q 986 -62 986 -97 q 1021 -28 986 -28 m 1036 893 q 1071 858 1071 893 q 1036 824 1071 824 q 1001 858 1001 824 q 1036 893 1001 893 m 922 974 q 957 939 957 974 q 922 904 957 904 q 888 939 888 904 q 922 974 888 974 m 793 1019 q 828 985 828 1019 q 793 950 828 950 q 758 985 758 950 q 793 1019 758 1019 m 654 1031 q 689 996 689 1031 q 654 961 689 961 q 619 996 619 961 q 654 1031 619 1031 m 1197 522 q 1232 488 1232 522 q 1197 453 1232 453 q 1163 488 1163 453 q 1197 522 1163 522 m 1178 658 q 1213 624 1213 658 q 1178 589 1213 589 q 1143 624 1143 589 q 1178 658 1143 658 m 1124 786 q 1158 751 1158 786 q 1124 717 1158 717 q 1089 751 1089 717 q 1124 786 1089 786 m 272 893 q 238 858 238 893 q 272 824 238 824 q 307 858 307 824 q 272 893 307 893 m 386 974 q 351 939 351 974 q 386 904 351 904 q 421 939 421 904 q 386 974 421 974 m 515 1019 q 481 985 481 1019 q 515 950 481 950 q 550 985 550 950 q 515 1019 550 1019 m 111 522 q 76 488 76 522 q 111 453 76 453 q 146 488 146 453 q 111 522 146 522 m 131 658 q 96 624 96 658 q 131 589 96 589 q 165 624 165 589 q 131 658 165 658 m 185 786 q 150 751 150 786 q 185 717 150 717 q 219 751 219 717 q 185 786 219 786 m 272 82 q 238 117 238 82 q 272 151 238 151 q 307 117 307 151 q 272 82 307 82 m 386 1 q 351 36 351 1 q 386 71 351 71 q 421 36 421 71 q 386 1 421 1 m 515 -46 q 481 -11 481 -46 q 515 24 481 24 q 550 -11 550 24 q 515 -46 550 -46 m 654 -56 q 619 -21 619 -56 q 654 14 619 14 q 689 -21 689 14 q 654 -56 689 -56 m 131 315 q 96 350 96 315 q 131 385 96 385 q 165 350 165 385 q 131 315 165 315 m 185 189 q 150 224 150 189 q 185 258 150 258 q 219 224 219 258 q 185 189 219 189 m 1036 82 q 1071 117 1071 82 q 1036 151 1071 151 q 1001 117 1001 151 q 1036 82 1001 82 m 793 -46 q 828 -11 828 -46 q 793 24 828 24 q 758 -11 758 24 q 793 -46 758 -46 m 1178 315 q 1213 350 1213 315 q 1178 385 1213 385 q 1143 350 1143 385 q 1178 315 1143 315 m 1124 189 q 1158 224 1158 189 q 1124 258 1158 258 q 1089 224 1089 258 q 1124 189 1089 189 z "},"R":{"ha":865,"x_min":104,"x_max":817,"o":"m 668 847 q 703 882 703 847 q 668 917 703 917 q 633 882 633 917 q 668 847 633 847 m 728 725 q 763 760 763 725 q 728 794 763 794 q 693 760 693 794 q 728 725 693 725 m 729 586 q 764 621 764 586 q 729 656 764 656 q 694 621 694 656 q 729 586 694 586 m 669 463 q 704 497 704 463 q 669 532 704 532 q 635 497 635 532 q 669 463 635 463 m 554 925 q 589 960 589 925 q 554 994 589 994 q 519 960 519 994 q 554 925 519 925 m 417 939 q 451 974 451 939 q 417 1008 451 1008 q 382 974 382 1008 q 417 939 382 939 m 278 939 q 313 974 313 939 q 278 1008 313 1008 q 243 974 243 1008 q 278 939 243 939 m 139 939 q 174 974 174 939 q 139 1008 174 1008 q 104 974 104 1008 q 139 939 104 939 m 553 390 q 588 425 588 390 q 553 460 588 460 q 518 425 518 460 q 553 390 518 390 m 276 382 q 311 417 311 382 q 276 451 311 451 q 242 417 242 451 q 276 382 242 382 m 139 383 q 174 418 174 383 q 139 453 174 453 q 104 418 104 453 q 139 383 104 383 m 139 -33 q 174 1 174 -33 q 139 36 174 36 q 104 1 104 36 q 139 -33 104 -33 m 415 382 q 450 417 450 382 q 415 451 450 451 q 381 417 381 451 q 415 382 381 382 m 507 278 q 542 313 542 278 q 507 347 542 347 q 472 313 472 347 q 507 278 472 278 m 599 174 q 633 208 633 174 q 599 243 633 243 q 564 208 564 243 q 599 174 564 174 m 690 69 q 725 104 725 69 q 690 139 725 139 q 656 104 656 139 q 690 69 656 69 m 782 -33 q 817 1 817 -33 q 782 36 817 36 q 747 1 747 36 q 782 -33 747 -33 m 174 835 q 139 869 174 869 q 104 835 104 869 q 139 800 104 800 q 174 835 174 800 m 174 696 q 139 731 174 731 q 104 696 104 731 q 139 661 104 661 q 174 696 174 661 m 174 557 q 139 592 174 592 q 104 557 104 592 q 139 522 104 522 q 174 557 174 522 m 174 279 q 139 314 174 314 q 104 279 104 314 q 139 244 104 244 q 174 279 174 244 m 174 140 q 139 175 174 175 q 104 140 104 175 q 139 106 104 106 q 174 140 174 106 z "},"S":{"ha":904,"x_min":76,"x_max":828,"o":"m 382 954 q 417 989 417 954 q 382 1024 417 1024 q 347 989 347 1024 q 382 954 347 954 m 521 957 q 556 992 556 957 q 521 1026 556 1026 q 486 992 486 1026 q 521 957 486 957 m 650 908 q 685 943 685 908 q 650 978 685 978 q 615 943 615 978 q 650 908 615 908 m 743 808 q 778 843 778 808 q 743 878 778 878 q 708 843 708 878 q 743 808 708 808 m 340 -37 q 375 -3 375 -37 q 340 32 375 32 q 306 -3 306 32 q 340 -37 306 -37 m 217 25 q 251 60 251 25 q 217 94 251 94 q 182 60 182 94 q 217 25 182 25 m 126 128 q 161 163 161 128 q 126 197 161 197 q 92 163 92 197 q 126 128 92 128 m 111 265 q 146 300 146 265 q 111 335 146 335 q 76 300 76 335 q 111 265 76 265 m 289 940 q 254 975 289 975 q 219 940 219 975 q 254 906 219 906 q 289 940 289 906 m 217 826 q 182 861 217 861 q 147 826 147 861 q 182 792 147 792 q 217 826 217 792 m 236 690 q 201 725 236 725 q 167 690 167 725 q 201 656 167 656 q 236 690 236 656 m 333 594 q 299 629 333 629 q 264 594 264 629 q 299 560 264 560 q 333 594 333 560 m 461 542 q 426 576 461 576 q 392 542 392 576 q 426 507 392 507 q 461 542 461 507 m 596 506 q 561 540 596 540 q 526 506 526 540 q 561 471 526 471 q 596 506 596 471 m 718 442 q 683 476 718 476 q 649 442 649 476 q 683 407 649 407 q 718 442 718 407 m 807 338 q 772 372 807 372 q 738 338 738 372 q 772 303 738 303 q 807 338 807 303 m 828 201 q 793 236 828 236 q 758 201 758 236 q 793 167 758 167 q 828 201 828 167 m 763 82 q 728 117 763 117 q 693 82 693 117 q 728 47 693 47 q 763 82 763 47 m 647 6 q 613 40 647 40 q 578 6 578 40 q 613 -29 578 -29 q 647 6 647 -29 m 513 -22 q 478 13 513 13 q 443 -22 443 13 q 478 -57 443 -57 q 513 -22 513 -57 z "},"T":{"ha":972,"x_min":35,"x_max":938,"o":"m 486 939 q 521 974 521 939 q 486 1008 521 1008 q 451 974 451 1008 q 486 939 451 939 m 625 939 q 660 974 660 939 q 625 1008 660 1008 q 590 974 590 1008 q 625 939 590 939 m 764 939 q 799 974 799 939 q 764 1008 799 1008 q 729 974 729 1008 q 764 939 729 939 m 903 939 q 938 974 938 939 q 903 1008 938 1008 q 868 974 868 1008 q 903 939 868 939 m 347 939 q 382 974 382 939 q 347 1008 382 1008 q 313 974 313 1008 q 347 939 313 939 m 208 939 q 243 974 243 939 q 208 1008 243 1008 q 174 974 174 1008 q 208 939 174 939 m 69 939 q 104 974 104 939 q 69 1008 104 1008 q 35 974 35 1008 q 69 939 35 939 m 486 383 q 521 418 521 383 q 486 453 521 453 q 451 418 451 453 q 486 383 451 383 m 486 -33 q 521 1 521 -33 q 486 36 521 36 q 451 1 451 36 q 486 -33 451 -33 m 521 835 q 486 869 521 869 q 451 835 451 869 q 486 800 451 800 q 521 835 521 800 m 521 696 q 486 731 521 731 q 451 696 451 731 q 486 661 451 661 q 521 696 521 661 m 521 557 q 486 592 521 592 q 451 557 451 592 q 486 522 451 522 q 521 557 521 522 m 521 279 q 486 314 521 314 q 451 279 451 314 q 486 244 451 244 q 521 279 521 244 m 521 140 q 486 175 521 175 q 451 140 451 175 q 486 106 451 106 q 521 140 521 106 z "},"U":{"ha":950,"x_min":104,"x_max":846,"o":"m 139 939 q 174 974 174 939 q 139 1008 174 1008 q 104 974 104 1008 q 139 939 104 939 m 139 383 q 174 418 174 383 q 139 453 174 453 q 104 418 104 453 q 139 383 104 383 m 281 7 q 315 42 315 7 q 281 76 315 76 q 246 42 246 76 q 281 7 246 7 m 404 -54 q 439 -19 439 -54 q 404 15 439 15 q 369 -19 369 15 q 404 -54 369 -54 m 543 -53 q 578 -18 578 -53 q 543 17 578 17 q 508 -18 508 17 q 543 -53 508 -53 m 174 835 q 139 869 174 869 q 104 835 104 869 q 139 800 104 800 q 174 835 174 800 m 174 696 q 139 731 174 731 q 104 696 104 731 q 139 661 104 661 q 174 696 174 661 m 174 557 q 139 592 174 592 q 104 557 104 592 q 139 522 104 522 q 174 557 174 522 m 185 281 q 150 315 185 315 q 115 281 115 315 q 150 246 115 246 q 185 281 185 246 m 811 383 q 776 418 776 383 q 811 453 776 453 q 846 418 846 453 q 811 383 846 383 m 765 279 q 800 314 765 314 q 835 279 835 314 q 800 244 835 244 q 765 279 765 244 m 228 149 q 193 183 228 183 q 158 149 158 183 q 193 114 158 114 q 228 149 228 114 m 811 939 q 776 974 776 939 q 811 1008 776 1008 q 846 974 846 1008 q 811 939 846 939 m 667 8 q 632 43 632 8 q 667 78 632 78 q 701 43 701 78 q 667 8 701 8 m 776 835 q 811 869 776 869 q 846 835 846 869 q 811 800 846 800 q 776 835 776 800 m 776 696 q 811 731 776 731 q 846 696 846 731 q 811 661 846 661 q 776 696 776 661 m 776 557 q 811 592 776 592 q 846 557 846 592 q 811 522 846 522 q 776 557 776 522 m 719 149 q 754 183 719 183 q 789 149 789 183 q 754 114 789 114 q 719 149 719 114 z "},"V":{"ha":1238,"x_min":63,"x_max":1175,"o":"m 97 939 q 132 974 132 939 q 97 1008 132 1008 q 63 974 63 1008 q 97 939 63 939 m 163 815 q 197 850 197 815 q 163 885 197 885 q 128 850 128 885 q 163 815 128 815 m 228 693 q 263 728 263 693 q 228 763 263 763 q 193 728 193 763 q 228 693 193 693 m 293 571 q 328 606 328 571 q 293 640 328 640 q 258 606 258 640 q 293 571 258 571 m 358 447 q 393 482 393 447 q 358 517 393 517 q 324 482 324 517 q 358 447 324 447 m 424 325 q 458 360 458 325 q 424 394 458 394 q 389 360 389 394 q 424 325 389 325 m 489 203 q 524 238 524 203 q 489 272 524 272 q 454 238 454 272 q 489 203 454 203 m 554 81 q 589 115 589 81 q 554 150 589 150 q 519 115 519 150 q 554 81 519 81 m 1140 939 q 1106 974 1106 939 q 1140 1008 1106 1008 q 1175 974 1175 1008 q 1140 939 1175 939 m 1075 815 q 1040 850 1040 815 q 1075 885 1040 885 q 1110 850 1110 885 q 1075 815 1110 815 m 1010 693 q 975 728 975 693 q 1010 763 975 763 q 1044 728 1044 763 q 1010 693 1044 693 m 944 571 q 910 606 910 571 q 944 640 910 640 q 979 606 979 640 q 944 571 979 571 m 879 447 q 844 482 844 447 q 879 517 844 517 q 914 482 914 517 q 879 447 914 447 m 814 325 q 779 360 779 325 q 814 394 779 394 q 849 360 849 394 q 814 325 849 325 m 749 203 q 714 238 714 203 q 749 272 714 272 q 783 238 783 272 q 749 203 783 203 m 683 81 q 649 115 649 81 q 683 150 649 150 q 718 115 718 150 q 683 81 718 81 m 619 -43 q 585 -8 585 -43 q 619 26 585 26 q 654 -8 654 26 q 619 -43 654 -43 z "},"W":{"ha":1629,"x_min":63,"x_max":1567,"o":"m 97 939 q 132 974 132 939 q 97 1008 132 1008 q 63 974 63 1008 q 97 939 63 939 m 163 815 q 197 850 197 815 q 163 885 197 885 q 128 850 128 885 q 163 815 128 815 m 228 693 q 263 728 263 693 q 228 763 263 763 q 193 728 193 763 q 228 693 193 693 m 293 571 q 328 606 328 571 q 293 640 328 640 q 258 606 258 640 q 293 571 258 571 m 358 447 q 393 482 393 447 q 358 517 393 517 q 324 482 324 517 q 358 447 324 447 m 424 325 q 458 360 458 325 q 424 394 458 394 q 389 360 389 394 q 424 325 389 325 m 489 203 q 524 238 524 203 q 489 272 524 272 q 454 238 454 272 q 489 203 454 203 m 554 81 q 589 115 589 81 q 554 150 589 150 q 519 115 519 150 q 554 81 519 81 m 1140 939 q 1106 974 1106 939 q 1140 1008 1106 1008 q 1175 974 1175 1008 q 1140 939 1175 939 m 1075 815 q 1040 850 1040 815 q 1075 885 1040 885 q 1110 850 1110 885 q 1075 815 1110 815 m 1010 693 q 975 728 975 693 q 1010 763 975 763 q 1044 728 1044 763 q 1010 693 1044 693 m 944 571 q 910 606 910 571 q 944 640 910 640 q 979 606 979 640 q 944 571 979 571 m 879 447 q 844 482 844 447 q 879 517 844 517 q 914 482 914 517 q 879 447 914 447 m 814 325 q 779 360 779 325 q 814 394 779 394 q 849 360 849 394 q 814 325 849 325 m 749 203 q 714 238 714 203 q 749 272 714 272 q 783 238 783 272 q 749 203 783 203 m 683 81 q 649 115 649 81 q 683 150 649 150 q 718 115 718 150 q 683 81 718 81 m 619 -43 q 585 -8 585 -43 q 619 26 585 26 q 654 -8 654 26 q 619 -43 654 -43 m 489 939 q 524 974 524 939 q 489 1008 524 1008 q 454 974 454 1008 q 489 939 454 939 m 554 815 q 589 850 589 815 q 554 885 589 885 q 519 850 519 885 q 554 815 519 815 m 619 693 q 654 728 654 693 q 619 763 654 763 q 585 728 585 763 q 619 693 585 693 m 683 571 q 718 606 718 571 q 683 640 718 640 q 649 606 649 640 q 683 571 649 571 m 749 447 q 783 482 783 447 q 749 517 783 517 q 714 482 714 517 q 749 447 714 447 m 879 203 q 914 238 914 203 q 879 272 914 272 q 844 238 844 272 q 879 203 844 203 m 944 81 q 979 115 979 81 q 944 150 979 150 q 910 115 910 150 q 944 81 910 81 m 1532 939 q 1497 974 1497 939 q 1532 1008 1497 1008 q 1567 974 1567 1008 q 1532 939 1567 939 m 1467 815 q 1432 850 1432 815 q 1467 885 1432 885 q 1501 850 1501 885 q 1467 815 1501 815 m 1401 693 q 1367 728 1367 693 q 1401 763 1367 763 q 1436 728 1436 763 q 1401 693 1436 693 m 1336 571 q 1301 606 1301 571 q 1336 640 1301 640 q 1371 606 1371 640 q 1336 571 1371 571 m 1271 447 q 1236 482 1236 447 q 1271 517 1236 517 q 1306 482 1306 517 q 1271 447 1306 447 m 1206 325 q 1171 360 1171 325 q 1206 394 1171 394 q 1240 360 1240 394 q 1206 325 1240 325 m 1140 203 q 1106 238 1106 203 q 1140 272 1106 272 q 1175 238 1175 272 q 1140 203 1175 203 m 1075 81 q 1040 115 1040 81 q 1075 150 1040 150 q 1110 115 1110 150 q 1075 81 1110 81 m 1010 -43 q 975 -8 975 -43 q 1010 26 975 26 q 1044 -8 1044 26 q 1010 -43 1044 -43 z "},"X":{"ha":1094,"x_min":76,"x_max":1018,"o":"m 199 939 q 233 974 233 939 q 199 1008 233 1008 q 164 974 164 1008 q 199 939 164 939 m 286 831 q 321 865 321 831 q 286 900 321 900 q 251 865 251 900 q 286 831 251 831 m 372 722 q 407 757 407 722 q 372 792 407 792 q 338 757 338 792 q 372 722 338 722 m 460 614 q 494 649 494 614 q 460 683 494 683 q 425 649 425 683 q 460 614 425 614 m 547 506 q 582 540 582 506 q 547 575 582 575 q 513 540 513 575 q 547 506 513 506 m 635 399 q 669 433 669 399 q 635 468 669 468 q 600 433 600 468 q 635 399 600 399 m 722 290 q 757 325 757 290 q 722 360 757 360 q 688 325 688 360 q 722 290 688 290 m 808 182 q 843 217 843 182 q 808 251 843 251 q 774 217 774 251 q 808 182 774 182 m 896 74 q 931 108 931 74 q 896 143 931 143 q 861 108 861 143 q 896 74 861 74 m 983 -33 q 1018 1 1018 -33 q 983 36 1018 36 q 949 1 949 36 q 983 -33 949 -33 m 896 939 q 861 974 861 939 q 896 1008 861 1008 q 931 974 931 1008 q 896 939 931 939 m 808 831 q 774 865 774 831 q 808 900 774 900 q 843 865 843 900 q 808 831 843 831 m 722 722 q 688 757 688 722 q 722 792 688 792 q 757 757 757 792 q 722 722 757 722 m 635 614 q 600 649 600 614 q 635 683 600 683 q 669 649 669 683 q 635 614 669 614 m 460 399 q 425 433 425 399 q 460 468 425 468 q 494 433 494 468 q 460 399 494 399 m 372 290 q 338 325 338 290 q 372 360 338 360 q 407 325 407 360 q 372 290 407 290 m 286 182 q 251 217 251 182 q 286 251 251 251 q 321 217 321 251 q 286 182 321 182 m 199 74 q 164 108 164 74 q 199 143 164 143 q 233 108 233 143 q 199 74 233 74 m 111 -33 q 76 1 76 -33 q 111 36 76 36 q 146 1 146 36 q 111 -33 146 -33 z "},"Y":{"ha":1029,"x_min":63,"x_max":967,"o":"m 97 939 q 132 974 132 939 q 97 1008 132 1008 q 63 974 63 1008 q 97 939 63 939 m 181 828 q 215 863 215 828 q 181 897 215 897 q 146 863 146 897 q 181 828 146 828 m 264 717 q 299 751 299 717 q 264 786 299 786 q 229 751 229 786 q 264 717 229 717 m 347 606 q 382 640 382 606 q 347 675 382 675 q 313 640 313 675 q 347 606 313 606 m 432 494 q 467 529 467 494 q 432 564 467 564 q 397 529 397 564 q 432 494 397 494 m 515 383 q 550 418 550 383 q 515 453 550 453 q 481 418 481 453 q 515 383 481 383 m 932 939 q 897 974 897 939 q 932 1008 897 1008 q 967 974 967 1008 q 932 939 967 939 m 849 828 q 814 863 814 828 q 849 897 814 897 q 883 863 883 897 q 849 828 883 828 m 765 717 q 731 751 731 717 q 765 786 731 786 q 800 751 800 786 q 765 717 800 717 m 682 606 q 647 640 647 606 q 682 675 647 675 q 717 640 717 675 q 682 606 717 606 m 599 494 q 564 529 564 494 q 599 564 564 564 q 633 529 633 564 q 599 494 633 494 m 515 -33 q 550 1 550 -33 q 515 36 550 36 q 481 1 481 36 q 515 -33 481 -33 m 550 279 q 515 314 550 314 q 481 279 481 314 q 515 244 481 244 q 550 279 550 244 m 550 140 q 515 175 550 175 q 481 140 481 175 q 515 106 481 106 q 550 140 550 106 z "},"Z":{"ha":1028,"x_min":63,"x_max":965,"o":"m 882 939 q 847 974 847 939 q 882 1008 847 1008 q 917 974 917 1008 q 882 939 917 939 m 743 939 q 708 974 708 939 q 743 1008 708 1008 q 778 974 778 1008 q 743 939 778 939 m 604 939 q 569 974 569 939 q 604 1008 569 1008 q 639 974 639 1008 q 604 939 639 939 m 465 939 q 431 974 431 939 q 465 1008 431 1008 q 500 974 500 1008 q 465 939 500 939 m 326 939 q 292 974 292 939 q 326 1008 292 1008 q 361 974 361 1008 q 326 939 361 939 m 188 939 q 153 974 153 939 q 188 1008 153 1008 q 222 974 222 1008 q 188 939 222 939 m 794 831 q 760 865 760 831 q 794 900 760 900 q 829 865 829 900 q 794 831 829 831 m 708 722 q 674 757 674 722 q 708 792 674 792 q 743 757 743 792 q 708 722 743 722 m 621 614 q 586 649 586 614 q 621 683 586 683 q 656 649 656 683 q 621 614 656 614 m 533 506 q 499 540 499 506 q 533 575 499 575 q 568 540 568 575 q 533 506 568 506 m 446 399 q 411 433 411 399 q 446 468 411 468 q 481 433 481 468 q 446 399 481 399 m 358 290 q 324 325 324 290 q 358 360 324 360 q 393 325 393 360 q 358 290 393 290 m 272 182 q 238 217 238 182 q 272 251 238 251 q 307 217 307 251 q 272 182 307 182 m 185 74 q 150 108 150 74 q 185 143 150 143 q 219 108 219 143 q 185 74 219 74 m 97 -33 q 63 1 63 -33 q 97 36 63 36 q 132 1 132 36 q 97 -33 132 -33 m 236 -33 q 201 1 201 -33 q 236 36 201 36 q 271 1 271 36 q 236 -33 271 -33 m 375 -33 q 340 1 340 -33 q 375 36 340 36 q 410 1 410 36 q 375 -33 410 -33 m 514 -33 q 479 1 479 -33 q 514 36 479 36 q 549 1 549 36 q 514 -33 549 -33 m 653 -33 q 618 1 618 -33 q 653 36 618 36 q 688 1 688 36 q 653 -33 688 -33 m 792 -33 q 757 1 757 -33 q 792 36 757 36 q 826 1 826 36 q 792 -33 826 -33 m 931 -33 q 896 1 896 -33 q 931 36 896 36 q 965 1 965 36 q 931 -33 965 -33 z "},"[":{"ha":417,"x_min":104,"x_max":313,"o":"m 139 592 q 174 557 174 592 q 139 522 174 522 q 104 557 104 522 q 139 592 104 592 m 174 140 q 139 106 174 106 q 104 140 104 106 q 139 175 104 175 q 174 140 174 175 m 174 1 q 139 -33 174 -33 q 104 1 104 -33 q 139 36 104 36 q 174 1 174 36 m 174 -137 q 139 -172 174 -172 q 104 -137 104 -172 q 139 -103 104 -103 q 174 -137 174 -103 m 174 279 q 139 244 174 244 q 104 279 104 244 q 139 314 104 314 q 174 279 174 314 m 174 418 q 139 383 174 383 q 104 418 104 383 q 139 453 104 453 q 174 418 174 453 m 174 696 q 139 661 174 661 q 104 696 104 661 q 139 731 104 731 q 174 696 174 731 m 174 835 q 139 800 174 800 q 104 835 104 800 q 139 869 104 869 q 174 835 174 869 m 174 974 q 139 939 174 939 q 104 974 104 939 q 139 1008 104 1008 q 174 974 174 1008 m 313 -137 q 278 -172 313 -172 q 243 -137 243 -172 q 278 -103 243 -103 q 313 -137 313 -103 m 313 974 q 278 939 313 939 q 243 974 243 939 q 278 1008 243 1008 q 313 974 313 1008 z "},"\\":{"ha":788,"x_min":90,"x_max":697,"o":"m 596 157 q 561 122 561 157 q 596 88 561 88 q 631 122 631 88 q 596 157 631 157 m 663 35 q 628 0 628 35 q 663 -35 628 -35 q 697 0 697 -35 q 663 35 697 35 m 326 643 q 292 608 292 643 q 326 574 292 574 q 361 608 361 574 q 326 643 361 643 m 493 243 q 528 208 493 208 q 563 243 563 208 q 528 278 563 278 q 493 243 493 278 m 426 365 q 461 331 426 331 q 496 365 496 331 q 461 400 496 400 q 426 365 426 400 m 360 486 q 394 451 360 451 q 429 486 429 451 q 394 521 429 521 q 360 486 360 521 m 225 729 q 260 694 225 694 q 294 729 294 694 q 260 764 294 764 q 225 729 225 764 m 157 851 q 192 817 157 817 q 226 851 226 817 q 192 886 226 886 q 157 851 157 886 m 125 1007 q 90 972 90 1007 q 125 938 90 938 q 160 972 160 938 q 125 1007 160 1007 z "},"]":{"ha":417,"x_min":104,"x_max":313,"o":"m 278 592 q 243 557 243 592 q 278 522 243 522 q 313 557 313 522 q 278 592 313 592 m 243 140 q 278 106 243 106 q 313 140 313 106 q 278 175 313 175 q 243 140 243 175 m 243 1 q 278 -33 243 -33 q 313 1 313 -33 q 278 36 313 36 q 243 1 243 36 m 243 -137 q 278 -172 243 -172 q 313 -137 313 -172 q 278 -103 313 -103 q 243 -137 243 -103 m 243 279 q 278 244 243 244 q 313 279 313 244 q 278 314 313 314 q 243 279 243 314 m 243 418 q 278 383 243 383 q 313 418 313 383 q 278 453 313 453 q 243 418 243 453 m 243 696 q 278 661 243 661 q 313 696 313 661 q 278 731 313 731 q 243 696 243 731 m 243 835 q 278 800 243 800 q 313 835 313 800 q 278 869 313 869 q 243 835 243 869 m 243 974 q 278 939 243 939 q 313 974 313 939 q 278 1008 313 1008 q 243 974 243 1008 m 104 -137 q 139 -172 104 -172 q 174 -137 174 -172 q 139 -103 174 -103 q 104 -137 104 -103 m 104 974 q 139 939 104 939 q 174 974 174 939 q 139 1008 174 1008 q 104 974 104 1008 z "},"^":{"ha":539,"x_min":104,"x_max":435,"o":"m 169 850 q 204 885 169 885 q 239 850 239 885 q 204 815 239 815 q 169 850 169 815 m 104 726 q 139 761 104 761 q 174 726 174 761 q 139 692 174 692 q 104 726 104 692 m 304 972 q 268 1007 303 1007 q 235 971 233 1006 q 269 938 235 936 q 304 972 304 938 m 369 850 q 333 885 368 885 q 300 849 299 883 q 335 815 300 814 q 369 850 369 815 m 435 728 q 399 761 433 763 q 365 726 364 761 q 400 692 365 692 q 435 728 435 693 z "},"_":{"ha":667,"x_min":90,"x_max":576,"o":"m 542 -239 q 507 -274 507 -239 q 542 -308 507 -308 q 576 -274 576 -308 q 542 -239 576 -239 m 125 -239 q 90 -274 90 -239 q 125 -308 90 -308 q 160 -274 160 -308 q 125 -239 160 -239 m 438 -274 q 403 -239 438 -239 q 368 -275 368 -240 q 403 -308 368 -310 q 438 -274 438 -308 m 299 -274 q 264 -239 299 -239 q 229 -275 229 -240 q 264 -308 229 -310 q 299 -274 299 -308 z "},"`":{"ha":500,"x_min":104,"x_max":396,"o":"m 139 1008 q 174 974 174 1008 q 139 939 174 939 q 104 974 104 939 q 139 1008 104 1008 m 250 924 q 285 889 285 924 q 250 854 285 854 q 215 889 215 854 q 250 924 215 924 m 361 840 q 396 806 396 840 q 361 771 396 771 q 326 806 326 771 q 361 840 326 840 z "},"a":{"ha":929,"x_min":63,"x_max":825,"o":"m 790 36 q 825 1 825 36 q 790 -33 825 -33 q 756 1 756 -33 q 790 36 756 36 m 790 592 q 825 557 825 592 q 790 522 825 522 q 756 557 756 522 q 790 592 756 592 m 825 140 q 790 106 825 106 q 756 140 756 106 q 790 175 756 175 q 825 140 825 175 m 825 279 q 790 244 825 244 q 756 279 756 244 q 790 314 756 314 q 825 279 825 314 m 825 418 q 790 383 825 383 q 756 418 756 383 q 790 453 756 453 q 825 418 825 453 m 825 696 q 790 661 825 661 q 756 696 756 661 q 790 731 756 731 q 825 696 825 731 m 686 696 q 651 661 686 661 q 617 696 617 661 q 651 731 617 731 q 686 696 686 731 m 547 696 q 513 661 547 661 q 478 696 478 661 q 513 731 478 731 q 547 696 547 731 m 281 638 q 246 603 281 603 q 211 638 211 603 q 246 672 211 672 q 281 638 281 672 m 183 539 q 149 504 183 504 q 114 539 114 504 q 149 574 114 574 q 183 539 183 574 m 132 411 q 97 376 132 376 q 63 411 63 376 q 97 446 63 446 q 132 411 132 446 m 135 272 q 100 238 135 238 q 65 272 65 238 q 100 307 65 307 q 135 272 135 307 m 192 146 q 157 111 192 111 q 122 146 122 111 q 157 181 122 181 q 192 146 192 181 m 292 53 q 257 18 292 18 q 222 53 222 18 q 257 88 222 88 q 292 53 292 88 m 421 4 q 386 -31 421 -31 q 351 4 351 -31 q 386 39 351 39 q 421 4 421 39 m 560 10 q 525 -25 560 -25 q 490 10 490 -25 q 525 44 490 44 q 560 10 560 44 m 683 69 q 649 35 683 35 q 614 69 614 35 q 649 104 614 104 q 683 69 683 104 m 408 690 q 374 656 408 656 q 339 690 339 656 q 374 725 339 725 q 408 690 408 725 z "},"b":{"ha":929,"x_min":104,"x_max":865,"o":"m 139 36 q 174 1 174 36 q 139 -33 174 -33 q 104 1 104 -33 q 139 36 104 36 m 278 36 q 313 1 313 36 q 278 -33 313 -33 q 243 1 243 -33 q 278 36 243 36 m 417 36 q 451 1 451 36 q 417 -33 451 -33 q 382 1 382 -33 q 417 36 382 36 m 139 592 q 174 557 174 592 q 139 522 174 522 q 104 557 104 522 q 139 592 104 592 m 279 663 q 314 628 314 663 q 279 593 314 593 q 244 628 244 593 q 279 663 244 663 m 404 721 q 439 686 439 721 q 404 651 439 651 q 369 686 369 651 q 404 721 369 721 m 542 728 q 576 693 576 728 q 542 658 576 658 q 507 693 507 658 q 542 728 507 728 m 671 679 q 706 644 706 679 q 671 610 706 610 q 636 644 636 610 q 671 679 636 679 m 772 585 q 807 550 807 585 q 772 515 807 515 q 738 550 738 515 q 772 585 738 585 m 828 458 q 863 424 863 458 q 828 389 863 389 q 793 424 793 389 q 828 458 793 458 m 831 321 q 865 286 865 321 q 831 251 865 251 q 796 286 796 251 q 831 321 796 321 m 779 193 q 814 158 814 193 q 779 124 814 124 q 744 158 744 124 q 779 193 744 193 m 682 94 q 717 60 717 94 q 682 25 717 25 q 647 60 647 25 q 682 94 647 94 m 554 42 q 589 7 589 42 q 554 -28 589 -28 q 519 7 519 -28 q 554 42 519 42 m 139 1008 q 174 974 174 1008 q 139 939 174 939 q 104 974 104 939 q 139 1008 104 1008 m 174 140 q 139 106 174 106 q 104 140 104 106 q 139 175 104 175 q 174 140 174 175 m 174 279 q 139 244 174 244 q 104 279 104 244 q 139 314 104 314 q 174 279 174 314 m 174 418 q 139 383 174 383 q 104 418 104 383 q 139 453 104 453 q 174 418 174 453 m 174 696 q 139 661 174 661 q 104 696 104 661 q 139 731 104 731 q 174 696 174 731 m 174 835 q 139 800 174 800 q 104 835 104 800 q 139 869 104 869 q 174 835 174 869 z "},"c":{"ha":835,"x_min":63,"x_max":779,"o":"m 501 11 q 536 -24 536 11 q 501 -58 536 -58 q 467 -24 467 -58 q 501 11 467 11 m 97 317 q 132 282 132 317 q 97 247 132 247 q 63 282 63 247 q 97 317 63 317 m 779 97 q 744 63 779 63 q 710 97 710 63 q 744 132 710 132 q 779 97 779 132 m 779 604 q 744 569 779 569 q 710 604 710 569 q 744 639 710 639 q 779 604 779 639 m 181 153 q 146 118 181 118 q 111 153 111 118 q 146 188 111 188 q 181 153 181 188 m 535 725 q 500 690 535 690 q 465 725 465 690 q 500 760 465 760 q 535 725 535 760 m 668 688 q 633 653 668 653 q 599 688 599 653 q 633 722 599 722 q 668 688 668 722 m 399 713 q 364 678 399 678 q 329 713 329 678 q 364 747 329 747 q 399 713 399 747 m 274 650 q 239 615 274 615 q 204 650 204 615 q 239 685 204 685 q 274 650 274 685 m 132 419 q 97 385 132 385 q 63 419 63 385 q 97 454 63 454 q 132 419 132 454 m 275 50 q 240 15 275 15 q 206 50 206 15 q 240 85 206 85 q 275 50 275 85 m 399 -11 q 364 -46 399 -46 q 329 -11 329 -46 q 364 24 329 24 q 399 -11 399 24 m 669 14 q 635 -21 669 -21 q 600 14 600 -21 q 635 49 600 49 q 669 14 669 49 m 181 549 q 146 514 181 514 q 111 549 111 514 q 146 583 111 583 q 181 549 181 583 z "},"d":{"ha":928,"x_min":63,"x_max":824,"o":"m 789 36 q 754 1 754 36 q 789 -33 754 -33 q 824 1 824 -33 q 789 36 824 36 m 650 660 q 615 694 615 660 q 650 729 615 729 q 685 694 685 729 q 650 660 685 660 m 511 660 q 476 694 476 660 q 511 729 476 729 q 546 694 546 729 q 511 660 546 660 m 789 592 q 754 557 754 592 q 789 522 754 522 q 824 557 824 522 q 789 592 824 592 m 649 33 q 614 68 614 33 q 649 103 614 103 q 683 68 683 103 q 649 33 683 33 m 524 -25 q 489 10 489 -25 q 524 44 489 44 q 558 10 558 44 q 524 -25 558 -25 m 386 -32 q 351 3 351 -32 q 386 38 351 38 q 421 3 421 38 q 386 -32 421 -32 m 257 17 q 222 51 222 17 q 257 86 222 86 q 292 51 292 86 q 257 17 292 17 m 156 111 q 121 146 121 111 q 156 181 121 181 q 190 146 190 181 q 156 111 190 111 m 100 238 q 65 272 65 238 q 100 307 65 307 q 135 272 135 307 q 100 238 135 238 m 97 375 q 63 410 63 375 q 97 444 63 444 q 132 410 132 444 q 97 375 132 375 m 149 503 q 114 538 114 503 q 149 572 114 572 q 183 538 183 572 q 149 503 183 503 m 246 601 q 211 636 211 601 q 246 671 211 671 q 281 636 281 671 q 246 601 281 601 m 374 654 q 339 689 339 654 q 374 724 339 724 q 408 689 408 724 q 374 654 408 654 m 789 1008 q 754 974 754 1008 q 789 939 754 939 q 824 974 824 939 q 789 1008 824 1008 m 754 140 q 789 106 754 106 q 824 140 824 106 q 789 175 824 175 q 754 140 754 175 m 754 279 q 789 244 754 244 q 824 279 824 244 q 789 314 824 314 q 754 279 754 314 m 754 418 q 789 383 754 383 q 824 418 824 383 q 789 453 824 453 q 754 418 754 453 m 754 696 q 789 661 754 661 q 824 696 824 661 q 789 731 824 731 q 754 696 754 731 m 754 835 q 789 800 754 800 q 824 835 824 800 q 789 869 824 869 q 754 835 754 869 z "},"e":{"ha":906,"x_min":63,"x_max":843,"o":"m 472 8 q 507 -26 507 8 q 472 -61 507 -61 q 438 -26 438 -61 q 472 8 438 8 m 97 350 q 132 315 132 350 q 97 281 132 281 q 63 315 63 281 q 97 350 63 350 m 760 72 q 725 38 760 38 q 690 72 690 38 q 725 107 690 107 q 760 72 760 107 m 843 182 q 808 147 843 147 q 774 182 774 147 q 808 217 774 217 q 843 182 843 217 m 807 576 q 772 542 807 542 q 738 576 738 542 q 772 611 738 611 q 807 576 807 611 m 689 504 q 654 469 689 469 q 619 504 619 469 q 654 539 619 539 q 689 504 689 539 m 571 431 q 536 396 571 396 q 501 431 501 396 q 536 465 501 465 q 571 431 571 465 m 453 357 q 418 322 453 322 q 383 357 383 322 q 418 392 383 392 q 453 357 453 392 m 335 283 q 300 249 335 249 q 265 283 265 249 q 300 318 265 318 q 335 283 335 318 m 169 182 q 135 147 169 147 q 100 182 100 147 q 135 217 100 217 q 169 182 169 217 m 575 719 q 540 685 575 685 q 506 719 506 685 q 540 754 506 754 q 575 719 575 754 m 704 669 q 669 635 704 635 q 635 669 635 635 q 669 704 635 704 q 704 669 704 704 m 436 719 q 401 685 436 685 q 367 719 367 685 q 401 754 367 754 q 436 719 436 754 m 308 669 q 274 635 308 635 q 239 669 239 635 q 274 704 239 704 q 308 669 308 704 m 144 453 q 110 418 144 418 q 75 453 75 418 q 110 488 75 488 q 144 453 144 488 m 253 72 q 218 38 253 38 q 183 72 183 38 q 218 107 183 107 q 253 72 253 107 m 369 -1 q 335 -36 369 -36 q 300 -1 300 -36 q 335 33 300 33 q 369 -1 369 33 m 643 0 q 608 -35 643 -35 q 574 0 574 -35 q 608 35 574 35 q 643 0 643 35 m 206 576 q 171 542 206 542 q 136 576 136 542 q 171 611 136 611 q 206 576 206 611 z "},"f":{"ha":583,"x_min":71,"x_max":557,"o":"m 244 36 q 210 1 210 36 q 244 -33 210 -33 q 279 1 279 -33 q 244 36 279 36 m 244 592 q 210 557 210 592 q 244 522 210 522 q 279 557 279 522 q 244 592 279 592 m 357 968 q 322 933 322 968 q 357 899 322 899 q 392 933 392 899 q 357 968 392 968 m 490 1004 q 456 969 456 1004 q 490 935 456 935 q 525 969 525 935 q 490 1004 525 1004 m 210 140 q 244 106 210 106 q 279 140 279 106 q 244 175 279 175 q 210 140 210 175 m 210 279 q 244 244 210 244 q 279 279 279 244 q 244 314 279 314 q 210 279 210 314 m 210 418 q 244 383 210 383 q 279 418 279 383 q 244 453 279 453 q 210 418 210 453 m 210 696 q 244 661 210 661 q 279 696 279 661 q 244 731 279 731 q 210 696 210 731 m 71 696 q 106 661 71 661 q 140 696 140 661 q 106 731 140 731 q 71 696 71 731 m 349 696 q 383 661 349 661 q 418 696 418 661 q 383 731 418 731 q 349 696 349 731 m 488 696 q 522 661 488 661 q 557 696 557 661 q 522 731 557 731 q 488 696 488 731 m 232 831 q 267 796 232 796 q 301 831 301 796 q 267 865 301 865 q 232 831 232 865 z "},"g":{"ha":928,"x_min":63,"x_max":824,"o":"m 789 36 q 754 1 754 36 q 789 -33 754 -33 q 824 1 824 -33 q 789 36 824 36 m 765 -100 q 731 -135 731 -100 q 765 -169 731 -169 q 800 -135 800 -169 q 765 -100 800 -100 m 676 -203 q 642 -237 642 -203 q 676 -272 642 -272 q 711 -237 711 -272 q 676 -203 711 -203 m 544 -239 q 510 -274 510 -239 q 544 -308 510 -308 q 579 -274 579 -308 q 544 -239 579 -239 m 267 -239 q 232 -274 232 -239 q 267 -308 232 -308 q 301 -274 301 -308 q 267 -239 301 -239 m 650 660 q 615 694 615 660 q 650 729 615 729 q 685 694 685 729 q 650 660 685 660 m 511 660 q 476 694 476 660 q 511 729 476 729 q 546 694 546 729 q 511 660 546 660 m 789 592 q 754 557 754 592 q 789 522 754 522 q 824 557 824 522 q 789 592 824 592 m 649 33 q 614 68 614 33 q 649 103 614 103 q 683 68 683 103 q 649 33 683 33 m 524 -25 q 489 10 489 -25 q 524 44 489 44 q 558 10 558 44 q 524 -25 558 -25 m 386 -32 q 351 3 351 -32 q 386 38 351 38 q 421 3 421 38 q 386 -32 421 -32 m 257 17 q 222 51 222 17 q 257 86 222 86 q 292 51 292 86 q 257 17 292 17 m 156 111 q 121 146 121 111 q 156 181 121 181 q 190 146 190 181 q 156 111 190 111 m 100 238 q 65 272 65 238 q 100 307 65 307 q 135 272 135 307 q 100 238 135 238 m 97 375 q 63 410 63 375 q 97 444 63 444 q 132 410 132 444 q 97 375 132 375 m 149 503 q 114 538 114 503 q 149 572 114 572 q 183 538 183 572 q 149 503 183 503 m 246 601 q 211 636 211 601 q 246 671 211 671 q 281 636 281 671 q 246 601 281 601 m 374 654 q 339 689 339 654 q 374 724 339 724 q 408 689 408 724 q 374 654 408 654 m 754 140 q 789 106 754 106 q 824 140 824 106 q 789 175 824 175 q 754 140 754 175 m 754 279 q 789 244 754 244 q 824 279 824 244 q 789 314 824 314 q 754 279 754 314 m 754 418 q 789 383 754 383 q 824 418 824 383 q 789 453 824 453 q 754 418 754 453 m 754 696 q 789 661 754 661 q 824 696 824 661 q 789 731 824 731 q 754 696 754 731 m 406 -239 q 371 -274 371 -239 q 406 -308 371 -308 q 440 -274 440 -308 q 406 -239 440 -239 m 128 -239 q 93 -274 93 -239 q 128 -308 93 -308 q 163 -274 163 -308 q 128 -239 163 -239 z "},"h":{"ha":914,"x_min":104,"x_max":838,"o":"m 139 36 q 104 1 104 36 q 139 -33 104 -33 q 174 1 174 -33 q 139 36 174 36 m 139 592 q 104 557 104 592 q 139 522 104 522 q 174 557 174 522 q 139 592 174 592 m 139 1008 q 104 974 104 1008 q 139 939 104 939 q 174 974 174 939 q 139 1008 174 1008 m 104 140 q 139 106 104 106 q 174 140 174 106 q 139 175 174 175 q 104 140 104 175 m 104 279 q 139 244 104 244 q 174 279 174 244 q 139 314 174 314 q 104 279 104 314 m 104 418 q 139 383 104 383 q 174 418 174 383 q 139 453 174 453 q 104 418 104 453 m 104 696 q 139 661 104 661 q 174 696 174 661 q 139 731 174 731 q 104 696 104 731 m 104 835 q 139 800 104 800 q 174 835 174 800 q 139 869 174 869 q 104 835 104 869 m 803 36 q 768 1 768 36 q 803 -33 768 -33 q 838 1 838 -33 q 803 36 838 36 m 749 579 q 714 544 714 579 q 749 510 714 510 q 783 544 783 510 q 749 579 783 579 m 768 140 q 803 106 768 106 q 838 140 838 106 q 803 175 838 175 q 768 140 768 175 m 768 279 q 803 244 768 244 q 838 279 838 244 q 803 314 838 314 q 768 279 768 314 m 768 418 q 803 383 768 383 q 838 418 838 383 q 803 453 838 453 q 768 418 768 453 m 615 642 q 650 607 615 607 q 685 642 685 607 q 650 676 685 676 q 615 642 615 676 m 486 692 q 521 657 486 657 q 556 692 556 657 q 521 726 556 726 q 486 692 486 726 m 347 688 q 382 653 347 653 q 417 688 417 653 q 382 722 417 722 q 347 688 347 722 m 222 631 q 257 596 222 596 q 292 631 292 596 q 257 665 292 665 q 222 631 222 665 z "},"i":{"ha":278,"x_min":104,"x_max":174,"o":"m 139 36 q 104 1 104 36 q 139 -33 104 -33 q 174 1 174 -33 q 139 36 174 36 m 139 592 q 104 557 104 592 q 139 522 104 522 q 174 557 174 522 q 139 592 174 592 m 139 1008 q 104 974 104 1008 q 139 939 104 939 q 174 974 174 939 q 139 1008 174 1008 m 104 140 q 139 106 104 106 q 174 140 174 106 q 139 175 174 175 q 104 140 104 175 m 104 279 q 139 244 104 244 q 174 279 174 244 q 139 314 174 314 q 104 279 104 314 m 104 418 q 139 383 104 383 q 174 418 174 383 q 139 453 174 453 q 104 418 104 453 m 104 696 q 139 661 104 661 q 174 696 174 661 q 139 731 174 731 q 104 696 104 731 z "},"j":{"ha":453,"x_min":35,"x_max":349,"o":"m 314 36 q 279 1 279 36 q 314 -33 279 -33 q 349 1 349 -33 q 314 36 349 36 m 292 -100 q 257 -135 257 -100 q 292 -169 257 -169 q 326 -135 326 -169 q 292 -100 326 -100 m 201 -203 q 167 -237 167 -203 q 201 -272 167 -272 q 236 -237 236 -272 q 201 -203 236 -203 m 69 -239 q 35 -274 35 -239 q 69 -308 35 -308 q 104 -274 104 -308 q 69 -239 104 -239 m 314 592 q 279 557 279 592 q 314 522 279 522 q 349 557 349 522 q 314 592 349 592 m 314 1008 q 279 974 279 1008 q 314 939 279 939 q 349 974 349 939 q 314 1008 349 1008 m 279 140 q 314 106 279 106 q 349 140 349 106 q 314 175 349 175 q 279 140 279 175 m 279 279 q 314 244 279 244 q 349 279 349 244 q 314 314 349 314 q 279 279 279 314 m 279 418 q 314 383 279 383 q 349 418 349 383 q 314 453 349 453 q 279 418 279 453 m 279 696 q 314 661 279 661 q 349 696 349 661 q 314 731 349 731 q 279 696 279 731 z "},"k":{"ha":776,"x_min":104,"x_max":728,"o":"m 139 36 q 104 1 104 36 q 139 -33 104 -33 q 174 1 174 -33 q 139 36 174 36 m 139 592 q 104 557 104 592 q 139 522 104 522 q 174 557 174 522 q 139 592 174 592 m 139 1008 q 104 974 104 1008 q 139 939 104 939 q 174 974 174 939 q 139 1008 174 1008 m 104 140 q 139 106 104 106 q 174 140 174 106 q 139 175 174 175 q 104 140 104 175 m 104 279 q 139 244 104 244 q 174 279 174 244 q 139 314 174 314 q 104 279 104 314 m 104 696 q 139 661 104 661 q 174 696 174 661 q 139 731 174 731 q 104 696 104 731 m 693 -33 q 728 1 728 -33 q 693 36 728 36 q 658 1 658 36 q 693 -33 658 -33 m 582 50 q 617 85 617 50 q 582 119 617 119 q 547 85 547 119 q 582 50 547 50 m 471 133 q 506 168 506 133 q 471 203 506 203 q 436 168 436 203 q 471 133 436 133 m 104 418 q 139 383 104 383 q 174 418 174 383 q 139 453 174 453 q 104 418 104 453 m 215 335 q 250 300 215 300 q 285 335 285 300 q 250 369 285 369 q 215 335 215 369 m 325 250 q 360 215 325 215 q 394 250 394 215 q 360 285 394 285 q 325 250 325 285 m 225 486 q 260 451 225 451 q 294 486 294 451 q 260 521 294 521 q 225 486 225 521 m 346 557 q 381 522 346 522 q 415 557 415 522 q 381 592 415 592 q 346 557 346 592 m 465 625 q 500 590 465 590 q 535 625 535 590 q 500 660 535 660 q 465 625 465 660 m 586 696 q 621 661 586 661 q 656 696 656 661 q 621 731 656 731 q 586 696 586 731 m 104 835 q 139 800 104 800 q 174 835 174 800 q 139 869 174 869 q 104 835 104 869 z "},"l":{"ha":347,"x_min":35,"x_max":243,"o":"m 208 36 q 174 1 174 36 q 208 -33 174 -33 q 243 1 243 -33 q 208 36 243 36 m 208 592 q 174 557 174 592 q 208 522 174 522 q 243 557 243 522 q 208 592 243 592 m 208 1008 q 174 974 174 1008 q 208 939 174 939 q 243 974 243 939 q 208 1008 243 1008 m 69 1008 q 35 974 35 1008 q 69 939 35 939 q 104 974 104 939 q 69 1008 104 1008 m 174 140 q 208 106 174 106 q 243 140 243 106 q 208 175 243 175 q 174 140 174 175 m 174 279 q 208 244 174 244 q 243 279 243 244 q 208 314 243 314 q 174 279 174 314 m 174 696 q 208 661 174 661 q 243 696 243 661 q 208 731 243 731 q 174 696 174 731 m 174 418 q 208 383 174 383 q 243 418 243 383 q 208 453 243 453 q 174 418 174 453 m 174 835 q 208 800 174 800 q 243 835 243 800 q 208 869 243 869 q 174 835 174 869 z "},"m":{"ha":1196,"x_min":90,"x_max":1106,"o":"m 125 36 q 90 1 90 36 q 125 -33 90 -33 q 160 1 160 -33 q 125 36 160 36 m 90 140 q 125 106 90 106 q 160 140 160 106 q 125 175 160 175 q 90 140 90 175 m 90 279 q 125 244 90 244 q 160 279 160 244 q 125 314 160 314 q 90 279 90 314 m 90 418 q 125 383 90 383 q 160 418 160 383 q 125 453 160 453 q 90 418 90 453 m 113 553 q 147 518 113 518 q 182 553 182 518 q 147 588 182 588 q 113 553 113 588 m 203 656 q 238 621 203 621 q 272 656 272 621 q 238 690 272 690 q 203 656 203 690 m 404 692 q 369 657 404 657 q 335 692 335 657 q 369 726 335 726 q 404 692 404 726 m 599 36 q 633 1 633 36 q 599 -33 633 -33 q 564 1 564 -33 q 599 36 564 36 m 633 140 q 599 106 633 106 q 564 140 564 106 q 599 175 564 175 q 633 140 633 175 m 633 279 q 599 244 633 244 q 564 279 564 244 q 599 314 564 314 q 633 279 633 314 m 633 418 q 599 383 633 383 q 564 418 564 383 q 599 453 564 453 q 633 418 633 453 m 633 557 q 599 522 633 522 q 564 557 564 522 q 599 592 564 592 q 633 557 633 592 m 536 656 q 501 621 536 621 q 467 656 467 621 q 501 690 467 690 q 536 656 536 690 m 660 656 q 694 621 660 621 q 729 656 729 621 q 694 690 729 690 q 660 656 660 690 m 861 692 q 826 657 861 657 q 792 692 792 657 q 826 726 792 726 q 861 692 861 726 m 1071 36 q 1106 1 1106 36 q 1071 -33 1106 -33 q 1036 1 1036 -33 q 1071 36 1036 36 m 1106 140 q 1071 106 1106 106 q 1036 140 1036 106 q 1071 175 1036 175 q 1106 140 1106 175 m 1106 279 q 1071 244 1106 244 q 1036 279 1036 244 q 1071 314 1036 314 q 1106 279 1106 314 m 1106 418 q 1071 383 1106 383 q 1036 418 1036 383 q 1071 453 1036 453 q 1106 418 1106 453 m 1085 553 q 1050 518 1085 518 q 1015 553 1015 518 q 1050 588 1015 588 q 1085 553 1085 588 m 994 656 q 960 621 994 621 q 925 656 925 621 q 960 690 925 690 q 994 656 994 690 z "},"n":{"ha":928,"x_min":104,"x_max":838,"o":"m 139 36 q 104 1 104 36 q 139 -33 104 -33 q 174 1 174 -33 q 139 36 174 36 m 139 592 q 104 557 104 592 q 139 522 104 522 q 174 557 174 522 q 139 592 174 592 m 104 140 q 139 106 104 106 q 174 140 174 106 q 139 175 174 175 q 104 140 104 175 m 104 279 q 139 244 104 244 q 174 279 174 244 q 139 314 174 314 q 104 279 104 314 m 104 418 q 139 383 104 383 q 174 418 174 383 q 139 453 174 453 q 104 418 104 453 m 104 696 q 139 661 104 661 q 174 696 174 661 q 139 731 174 731 q 104 696 104 731 m 803 36 q 768 1 768 36 q 803 -33 768 -33 q 838 1 838 -33 q 803 36 838 36 m 749 579 q 714 544 714 579 q 749 510 714 510 q 783 544 783 510 q 749 579 783 579 m 768 140 q 803 106 768 106 q 838 140 838 106 q 803 175 838 175 q 768 140 768 175 m 768 279 q 803 244 768 244 q 838 279 838 244 q 803 314 838 314 q 768 279 768 314 m 768 418 q 803 383 768 383 q 838 418 838 383 q 803 453 838 453 q 768 418 768 453 m 615 642 q 650 607 615 607 q 685 642 685 607 q 650 676 685 676 q 615 642 615 676 m 486 692 q 521 657 486 657 q 556 692 556 657 q 521 726 556 726 q 486 692 486 726 m 347 688 q 382 653 347 653 q 417 688 417 653 q 382 722 417 722 q 347 688 347 722 m 222 631 q 257 596 222 596 q 292 631 292 596 q 257 665 292 665 q 222 631 222 665 z "},"o":{"ha":940,"x_min":63,"x_max":878,"o":"m 501 11 q 536 -24 536 11 q 501 -58 536 -58 q 467 -24 467 -58 q 501 11 467 11 m 97 317 q 132 282 132 317 q 97 247 132 247 q 63 282 63 247 q 97 317 63 317 m 779 97 q 744 63 779 63 q 710 97 710 63 q 744 132 710 132 q 779 97 779 132 m 851 215 q 817 181 851 181 q 782 215 782 181 q 817 250 782 250 q 851 215 851 250 m 878 351 q 843 317 878 317 q 808 351 808 317 q 843 386 808 386 q 878 351 878 386 m 853 486 q 818 451 853 451 q 783 486 783 451 q 818 521 783 521 q 853 486 853 521 m 779 604 q 744 569 779 569 q 710 604 710 569 q 744 639 710 639 q 779 604 779 639 m 181 153 q 146 118 181 118 q 111 153 111 118 q 146 188 111 188 q 181 153 181 188 m 535 725 q 500 690 535 690 q 465 725 465 690 q 500 760 465 760 q 535 725 535 760 m 668 688 q 633 653 668 653 q 599 688 599 653 q 633 722 599 722 q 668 688 668 722 m 399 713 q 364 678 399 678 q 329 713 329 678 q 364 747 329 747 q 399 713 399 747 m 274 650 q 239 615 274 615 q 204 650 204 615 q 239 685 204 685 q 274 650 274 685 m 132 419 q 97 385 132 385 q 63 419 63 385 q 97 454 63 454 q 132 419 132 454 m 275 50 q 240 15 275 15 q 206 50 206 15 q 240 85 206 85 q 275 50 275 85 m 399 -11 q 364 -46 399 -46 q 329 -11 329 -46 q 364 24 329 24 q 399 -11 399 24 m 669 14 q 635 -21 669 -21 q 600 14 600 -21 q 635 49 600 49 q 669 14 669 49 m 181 549 q 146 514 181 514 q 111 549 111 514 q 146 583 111 583 q 181 549 181 583 z "},"p":{"ha":928,"x_min":104,"x_max":865,"o":"m 139 661 q 174 696 174 661 q 139 731 174 731 q 104 696 104 731 q 139 661 104 661 m 278 36 q 313 1 313 36 q 278 -33 313 -33 q 243 1 243 -33 q 278 36 243 36 m 417 36 q 451 1 451 36 q 417 -33 451 -33 q 382 1 382 -33 q 417 36 382 36 m 139 106 q 174 140 174 106 q 139 175 174 175 q 104 140 104 175 q 139 106 104 106 m 279 663 q 314 628 314 663 q 279 593 314 593 q 244 628 244 593 q 279 663 244 663 m 404 721 q 439 686 439 721 q 404 651 439 651 q 369 686 369 651 q 404 721 369 721 m 542 728 q 576 693 576 728 q 542 658 576 658 q 507 693 507 658 q 542 728 507 728 m 671 679 q 706 644 706 679 q 671 610 706 610 q 636 644 636 610 q 671 679 636 679 m 772 585 q 807 550 807 585 q 772 515 807 515 q 738 550 738 515 q 772 585 738 585 m 828 458 q 863 424 863 458 q 828 389 863 389 q 793 424 793 389 q 828 458 793 458 m 831 321 q 865 286 865 321 q 831 251 865 251 q 796 286 796 251 q 831 321 796 321 m 779 193 q 814 158 814 193 q 779 124 814 124 q 744 158 744 124 q 779 193 744 193 m 682 94 q 717 60 717 94 q 682 25 717 25 q 647 60 647 25 q 682 94 647 94 m 554 42 q 589 7 589 42 q 554 -28 589 -28 q 519 7 519 -28 q 554 42 519 42 m 139 -311 q 174 -276 174 -311 q 139 -242 174 -242 q 104 -276 104 -242 q 139 -311 104 -311 m 174 557 q 139 592 174 592 q 104 557 104 592 q 139 522 104 522 q 174 557 174 522 m 174 418 q 139 453 174 453 q 104 418 104 453 q 139 383 104 383 q 174 418 174 383 m 174 279 q 139 314 174 314 q 104 279 104 314 q 139 244 104 244 q 174 279 174 244 m 174 1 q 139 36 174 36 q 104 1 104 36 q 139 -33 104 -33 q 174 1 174 -33 m 174 -137 q 139 -103 174 -103 q 104 -137 104 -103 q 139 -172 104 -172 q 174 -137 174 -172 z "},"q":{"ha":928,"x_min":63,"x_max":824,"o":"m 789 36 q 754 1 754 36 q 789 -33 754 -33 q 824 1 824 -33 q 789 36 824 36 m 789 -103 q 754 -137 754 -103 q 789 -172 754 -172 q 824 -137 824 -172 q 789 -103 824 -103 m 789 -242 q 754 -276 754 -242 q 789 -311 754 -311 q 824 -276 824 -311 q 789 -242 824 -242 m 650 660 q 615 694 615 660 q 650 729 615 729 q 685 694 685 729 q 650 660 685 660 m 511 660 q 476 694 476 660 q 511 729 476 729 q 546 694 546 729 q 511 660 546 660 m 789 592 q 754 557 754 592 q 789 522 754 522 q 824 557 824 522 q 789 592 824 592 m 649 33 q 614 68 614 33 q 649 103 614 103 q 683 68 683 103 q 649 33 683 33 m 524 -25 q 489 10 489 -25 q 524 44 489 44 q 558 10 558 44 q 524 -25 558 -25 m 386 -32 q 351 3 351 -32 q 386 38 351 38 q 421 3 421 38 q 386 -32 421 -32 m 257 17 q 222 51 222 17 q 257 86 222 86 q 292 51 292 86 q 257 17 292 17 m 156 111 q 121 146 121 111 q 156 181 121 181 q 190 146 190 181 q 156 111 190 111 m 100 238 q 65 272 65 238 q 100 307 65 307 q 135 272 135 307 q 100 238 135 238 m 97 375 q 63 410 63 375 q 97 444 63 444 q 132 410 132 444 q 97 375 132 375 m 149 503 q 114 538 114 503 q 149 572 114 572 q 183 538 183 572 q 149 503 183 503 m 246 601 q 211 636 211 601 q 246 671 211 671 q 281 636 281 671 q 246 601 281 601 m 374 654 q 339 689 339 654 q 374 724 339 724 q 408 689 408 724 q 374 654 408 654 m 754 140 q 789 106 754 106 q 824 140 824 106 q 789 175 824 175 q 754 140 754 175 m 754 279 q 789 244 754 244 q 824 279 824 244 q 789 314 824 314 q 754 279 754 314 m 754 418 q 789 383 754 383 q 824 418 824 383 q 789 453 824 453 q 754 418 754 453 m 754 696 q 789 661 754 661 q 824 696 824 661 q 789 731 824 731 q 754 696 754 731 z "},"r":{"ha":607,"x_min":104,"x_max":558,"o":"m 139 36 q 104 1 104 36 q 139 -33 104 -33 q 174 1 174 -33 q 139 36 174 36 m 139 592 q 104 557 104 592 q 139 522 104 522 q 174 557 174 522 q 139 592 174 592 m 104 140 q 139 106 104 106 q 174 140 174 106 q 139 175 174 175 q 104 140 104 175 m 104 279 q 139 244 104 244 q 174 279 174 244 q 139 314 174 314 q 104 279 104 314 m 104 418 q 139 383 104 383 q 174 418 174 383 q 139 453 174 453 q 104 418 104 453 m 104 696 q 139 661 104 661 q 174 696 174 661 q 139 731 174 731 q 104 696 104 731 m 489 696 q 524 661 489 661 q 558 696 558 661 q 524 731 558 731 q 489 696 489 731 m 350 686 q 385 651 350 651 q 419 686 419 651 q 385 721 419 721 q 350 686 350 721 m 224 628 q 258 593 224 593 q 293 628 293 593 q 258 663 293 663 q 224 628 224 663 z "},"s":{"ha":876,"x_min":58,"x_max":814,"o":"m 163 99 q 128 64 128 99 q 163 29 128 29 q 197 64 197 29 q 163 99 197 99 m 226 500 q 192 465 192 500 q 226 431 192 431 q 261 465 261 431 q 226 500 261 500 m 58 183 q 93 149 58 149 q 128 183 128 149 q 93 218 128 218 q 58 183 58 218 m 704 269 q 739 235 704 235 q 774 269 774 235 q 739 304 774 304 q 704 269 704 304 m 744 143 q 779 108 744 108 q 814 143 814 108 q 779 178 814 178 q 744 143 744 178 m 656 39 q 690 4 656 4 q 725 39 725 4 q 690 74 725 74 q 656 39 656 74 m 528 -10 q 563 -44 528 -44 q 597 -10 597 -44 q 563 25 597 25 q 528 -10 528 25 m 389 -21 q 424 -56 389 -56 q 458 -21 458 -56 q 424 14 458 14 q 389 -21 389 14 m 253 4 q 288 -31 253 -31 q 322 4 322 -31 q 288 39 322 39 q 253 4 253 39 m 318 410 q 353 375 318 375 q 388 410 388 375 q 353 444 388 444 q 318 410 318 444 m 454 382 q 489 347 454 347 q 524 382 524 347 q 489 417 524 417 q 454 382 454 417 m 589 343 q 624 308 589 308 q 658 343 658 308 q 624 378 658 378 q 589 343 589 378 m 710 592 q 744 557 710 557 q 779 592 779 557 q 744 626 779 626 q 710 592 710 626 m 611 686 q 646 651 611 651 q 681 686 681 651 q 646 721 681 721 q 611 686 611 721 m 481 726 q 515 692 481 692 q 550 726 550 692 q 515 761 550 761 q 481 726 481 761 m 342 725 q 376 690 342 690 q 411 725 411 690 q 376 760 411 760 q 342 725 342 760 m 208 689 q 243 654 208 654 q 278 689 278 654 q 243 724 278 724 q 208 689 208 724 m 129 582 q 164 547 129 547 q 199 582 199 547 q 164 617 199 617 q 129 582 129 617 z "},"t":{"ha":583,"x_min":49,"x_max":535,"o":"m 465 36 q 431 1 431 36 q 465 -33 431 -33 q 500 1 500 -33 q 465 36 500 36 m 222 592 q 188 557 188 592 q 222 522 188 522 q 257 557 257 522 q 222 592 257 592 m 211 143 q 246 108 211 108 q 281 143 281 108 q 246 178 281 178 q 211 143 211 178 m 301 42 q 336 7 301 7 q 371 42 371 7 q 336 76 371 76 q 301 42 301 76 m 188 279 q 222 244 188 244 q 257 279 257 244 q 222 314 257 314 q 188 279 188 314 m 188 418 q 222 383 188 383 q 257 418 257 383 q 222 453 257 453 q 188 418 188 453 m 188 696 q 222 661 188 661 q 257 696 257 661 q 222 731 257 731 q 188 696 188 731 m 49 696 q 83 661 49 661 q 118 696 118 661 q 83 731 118 731 q 49 696 49 731 m 326 696 q 361 661 326 661 q 396 696 396 661 q 361 731 396 731 q 326 696 326 731 m 465 696 q 500 661 465 661 q 535 696 535 661 q 500 731 535 731 q 465 696 465 731 m 188 835 q 222 800 188 800 q 257 835 257 800 q 222 869 257 869 q 188 835 188 869 m 188 974 q 222 939 188 939 q 257 974 257 939 q 222 1008 257 1008 q 188 974 188 1008 z "},"u":{"ha":928,"x_min":90,"x_max":824,"o":"m 789 661 q 824 696 824 661 q 789 731 824 731 q 754 696 754 731 q 789 661 754 661 m 789 106 q 824 140 824 106 q 789 175 824 175 q 754 140 754 175 q 789 106 754 106 m 824 557 q 789 592 824 592 q 754 557 754 592 q 789 522 754 522 q 824 557 824 522 m 824 418 q 789 453 824 453 q 754 418 754 453 q 789 383 754 383 q 824 418 824 383 m 824 279 q 789 314 824 314 q 754 279 754 314 q 789 244 754 244 q 824 279 824 244 m 824 1 q 789 36 824 36 q 754 1 754 36 q 789 -33 754 -33 q 824 1 824 -33 m 125 661 q 160 696 160 661 q 125 731 160 731 q 90 696 90 731 q 125 661 90 661 m 179 117 q 214 151 214 117 q 179 186 214 186 q 144 151 144 186 q 179 117 144 117 m 160 557 q 125 592 160 592 q 90 557 90 592 q 125 522 90 522 q 160 557 160 522 m 160 418 q 125 453 160 453 q 90 418 90 453 q 125 383 90 383 q 160 418 160 383 m 160 279 q 125 314 160 314 q 90 279 90 314 q 125 244 90 244 q 160 279 160 244 m 313 54 q 278 89 313 89 q 243 54 243 89 q 278 19 243 19 q 313 54 313 19 m 442 4 q 407 39 442 39 q 372 4 372 39 q 407 -31 372 -31 q 442 4 442 -31 m 581 8 q 546 43 581 43 q 511 8 511 43 q 546 -26 511 -26 q 581 8 581 -26 m 707 65 q 672 100 707 100 q 638 65 638 100 q 672 31 638 31 q 707 65 707 31 z "},"v":{"ha":1061,"x_min":49,"x_max":1013,"o":"m 83 661 q 118 696 118 661 q 83 731 118 731 q 49 696 49 731 q 83 661 49 661 m 158 543 q 193 578 193 543 q 158 613 193 613 q 124 578 124 613 q 158 543 124 543 m 232 426 q 267 461 267 426 q 232 496 267 496 q 197 461 197 496 q 232 426 197 426 m 307 310 q 342 344 342 310 q 307 379 342 379 q 272 344 272 379 q 307 310 272 310 m 382 192 q 417 226 417 192 q 382 261 417 261 q 347 226 347 261 q 382 192 347 192 m 457 75 q 492 110 492 75 q 457 144 492 144 q 422 110 422 144 q 457 75 422 75 m 531 -42 q 565 -7 565 -42 q 531 28 565 28 q 496 -7 496 28 q 531 -42 496 -42 m 978 661 q 943 696 943 661 q 978 731 943 731 q 1013 696 1013 731 q 978 661 1013 661 m 904 543 q 869 578 869 543 q 904 613 869 613 q 939 578 939 613 q 904 543 939 543 m 829 426 q 794 461 794 426 q 829 496 794 496 q 864 461 864 496 q 829 426 864 426 m 754 310 q 719 344 719 310 q 754 379 719 379 q 789 344 789 379 q 754 310 789 310 m 681 192 q 646 226 646 192 q 681 261 646 261 q 715 226 715 261 q 681 192 715 192 m 606 75 q 571 110 571 75 q 606 144 571 144 q 640 110 640 144 q 606 75 640 75 z "},"w":{"ha":1360,"x_min":49,"x_max":1311,"o":"m 83 661 q 118 696 118 661 q 83 731 118 731 q 49 696 49 731 q 83 661 49 661 m 158 543 q 193 578 193 543 q 158 613 193 613 q 124 578 124 613 q 158 543 124 543 m 232 426 q 267 461 267 426 q 232 496 267 496 q 197 461 197 496 q 232 426 197 426 m 307 310 q 342 344 342 310 q 307 379 342 379 q 272 344 272 379 q 307 310 272 310 m 382 192 q 417 226 417 192 q 382 261 417 261 q 347 226 347 261 q 382 192 347 192 m 457 75 q 492 110 492 75 q 457 144 492 144 q 422 110 422 144 q 457 75 422 75 m 531 -42 q 565 -7 565 -42 q 531 28 565 28 q 496 -7 496 28 q 531 -42 496 -42 m 978 661 q 943 696 943 661 q 978 731 943 731 q 1013 696 1013 731 q 978 661 1013 661 m 904 543 q 869 578 869 543 q 904 613 869 613 q 939 578 939 613 q 904 543 939 543 m 829 426 q 794 461 794 426 q 829 496 794 496 q 864 461 864 496 q 829 426 864 426 m 754 310 q 719 344 719 310 q 754 379 719 379 q 789 344 789 379 q 754 310 789 310 m 606 75 q 571 110 571 75 q 606 144 571 144 q 640 110 640 144 q 606 75 640 75 m 382 661 q 417 696 417 661 q 382 731 417 731 q 347 696 347 731 q 382 661 347 661 m 457 543 q 492 578 492 543 q 457 613 492 613 q 422 578 422 613 q 457 543 422 543 m 531 426 q 565 461 565 426 q 531 496 565 496 q 496 461 496 496 q 531 426 496 426 m 606 310 q 640 344 640 310 q 606 379 640 379 q 571 344 571 379 q 606 310 571 310 m 681 192 q 715 226 715 192 q 681 261 715 261 q 646 226 646 261 q 681 192 646 192 m 754 75 q 789 110 789 75 q 754 144 789 144 q 719 110 719 144 q 754 75 719 75 m 829 -42 q 864 -7 864 -42 q 829 28 864 28 q 794 -7 794 28 q 829 -42 794 -42 m 1276 661 q 1242 696 1242 661 q 1276 731 1242 731 q 1311 696 1311 731 q 1276 661 1311 661 m 1203 543 q 1168 578 1168 543 q 1203 613 1168 613 q 1238 578 1238 613 q 1203 543 1238 543 m 1128 426 q 1093 461 1093 426 q 1128 496 1093 496 q 1163 461 1163 496 q 1128 426 1163 426 m 1053 310 q 1018 344 1018 310 q 1053 379 1018 379 q 1088 344 1088 379 q 1053 310 1088 310 m 978 192 q 943 226 943 192 q 978 261 943 261 q 1013 226 1013 261 q 978 192 1013 192 m 904 75 q 869 110 869 75 q 904 144 869 144 q 939 110 939 144 q 904 75 939 75 z "},"x":{"ha":943,"x_min":49,"x_max":894,"o":"m 894 1 q 860 36 894 36 q 825 1 825 36 q 860 -33 825 -33 q 894 1 894 -33 m 797 100 q 763 135 797 135 q 728 100 728 135 q 763 65 728 65 q 797 100 797 65 m 700 199 q 665 233 700 233 q 631 199 631 233 q 665 164 631 164 q 700 199 700 164 m 603 299 q 568 333 603 333 q 533 299 533 333 q 568 264 533 264 q 603 299 603 264 m 507 397 q 472 432 507 432 q 438 397 438 432 q 472 363 438 363 q 507 397 507 363 m 410 497 q 375 532 410 532 q 340 497 340 532 q 375 463 340 463 q 410 497 410 463 m 313 596 q 278 631 313 631 q 243 596 243 631 q 278 561 243 561 q 313 596 313 561 m 215 696 q 181 731 215 731 q 146 696 146 731 q 181 661 146 661 q 215 696 215 661 m 49 1 q 83 36 49 36 q 118 1 118 36 q 83 -33 118 -33 q 49 1 49 -33 m 146 100 q 181 135 146 135 q 215 100 215 135 q 181 65 215 65 q 146 100 146 65 m 243 199 q 278 233 243 233 q 313 199 313 233 q 278 164 313 164 q 243 199 243 164 m 340 299 q 375 333 340 333 q 410 299 410 333 q 375 264 410 264 q 340 299 340 264 m 533 497 q 568 532 533 532 q 603 497 603 532 q 568 463 603 463 q 533 497 533 463 m 631 596 q 665 631 631 631 q 700 596 700 631 q 665 561 700 561 q 631 596 631 561 m 728 696 q 763 731 728 731 q 797 696 797 731 q 763 661 797 661 q 728 696 728 661 z "},"y":{"ha":1061,"x_min":49,"x_max":1013,"o":"m 83 661 q 118 696 118 661 q 83 731 118 731 q 49 696 49 731 q 83 661 49 661 m 158 543 q 193 578 193 543 q 158 613 193 613 q 124 578 124 613 q 158 543 124 543 m 232 426 q 267 461 267 426 q 232 496 267 496 q 197 461 197 496 q 232 426 197 426 m 307 310 q 342 344 342 310 q 307 379 342 379 q 272 344 272 379 q 307 310 272 310 m 382 192 q 417 226 417 192 q 382 261 417 261 q 347 226 347 261 q 382 192 347 192 m 457 75 q 492 110 492 75 q 457 144 492 144 q 422 110 422 144 q 457 75 422 75 m 531 -42 q 565 -7 565 -42 q 531 28 565 28 q 496 -7 496 28 q 531 -42 496 -42 m 978 661 q 943 696 943 661 q 978 731 943 731 q 1013 696 1013 731 q 978 661 1013 661 m 904 543 q 869 578 869 543 q 904 613 869 613 q 939 578 939 613 q 904 543 939 543 m 829 426 q 794 461 794 426 q 829 496 794 496 q 864 461 864 496 q 829 426 864 426 m 754 310 q 719 344 719 310 q 754 379 719 379 q 789 344 789 379 q 754 310 789 310 m 681 192 q 646 226 646 192 q 681 261 646 261 q 715 226 715 261 q 681 192 715 192 m 606 75 q 571 110 571 75 q 606 144 571 144 q 640 110 640 144 q 606 75 640 75 m 457 -158 q 422 -124 422 -158 q 457 -89 422 -89 q 492 -124 492 -89 q 457 -158 492 -158 m 371 -199 q 336 -233 336 -199 q 371 -268 336 -268 q 406 -233 406 -268 q 371 -199 406 -199 m 238 -239 q 203 -274 203 -239 q 238 -308 203 -308 q 272 -274 272 -308 q 238 -239 272 -239 m 99 -239 q 64 -274 64 -239 q 99 -308 64 -308 q 133 -274 133 -308 q 99 -239 133 -239 z "},"z":{"ha":875,"x_min":49,"x_max":813,"o":"m 49 1 q 83 36 49 36 q 118 1 118 36 q 83 -33 118 -33 q 49 1 49 -33 m 188 1 q 222 36 188 36 q 257 1 257 36 q 222 -33 257 -33 q 188 1 188 -33 m 326 1 q 361 36 326 36 q 396 1 396 36 q 361 -33 396 -33 q 326 1 326 -33 m 465 1 q 500 36 465 36 q 535 1 535 36 q 500 -33 535 -33 q 465 1 465 -33 m 604 1 q 639 36 604 36 q 674 1 674 36 q 639 -33 674 -33 q 604 1 604 -33 m 743 1 q 778 36 743 36 q 813 1 813 36 q 778 -33 813 -33 q 743 1 743 -33 m 146 100 q 181 135 146 135 q 215 100 215 135 q 181 65 215 65 q 146 100 146 65 m 243 199 q 278 233 243 233 q 313 199 313 233 q 278 164 313 164 q 243 199 243 164 m 340 299 q 375 333 340 333 q 410 299 410 333 q 375 264 410 264 q 340 299 340 264 m 438 397 q 472 432 438 432 q 507 397 507 432 q 472 363 507 363 q 438 397 438 363 m 533 497 q 568 532 533 532 q 603 497 603 532 q 568 463 603 463 q 533 497 533 463 m 631 596 q 665 631 631 631 q 700 596 700 631 q 665 561 700 561 q 631 596 631 561 m 728 696 q 763 731 728 731 q 797 696 797 731 q 763 661 797 661 q 728 696 728 661 m 589 696 q 624 731 589 731 q 658 696 658 731 q 624 661 658 661 q 589 696 589 661 m 450 696 q 485 731 450 731 q 519 696 519 731 q 485 661 519 661 q 450 696 450 661 m 311 696 q 346 731 311 731 q 381 696 381 731 q 346 661 381 661 q 311 696 311 661 m 172 696 q 207 731 172 731 q 242 696 242 731 q 207 661 242 661 q 172 696 172 661 z "},"{":{"ha":833,"x_min":0,"x_max":0,"o":""},"|":{"ha":278,"x_min":104,"x_max":174,"o":"m 139 592 q 174 557 174 592 q 139 522 174 522 q 104 557 104 522 q 139 592 104 592 m 174 140 q 139 106 174 106 q 104 140 104 106 q 139 175 104 175 q 174 140 174 175 m 174 1 q 139 -33 174 -33 q 104 1 104 -33 q 139 36 104 36 q 174 1 174 36 m 174 -137 q 139 -172 174 -172 q 104 -137 104 -172 q 139 -103 104 -103 q 174 -137 174 -103 m 174 279 q 139 244 174 244 q 104 279 104 244 q 139 314 104 314 q 174 279 174 314 m 174 418 q 139 383 174 383 q 104 418 104 383 q 139 453 104 453 q 174 418 174 453 m 174 696 q 139 661 174 661 q 104 696 104 661 q 139 731 104 731 q 174 696 174 731 m 174 835 q 139 800 174 800 q 104 835 104 800 q 139 869 104 869 q 174 835 174 869 m 174 974 q 139 939 174 939 q 104 974 104 939 q 139 1008 104 1008 q 174 974 174 1008 z "},"}":{"ha":833,"x_min":0,"x_max":0,"o":""},"~":{"ha":786,"x_min":104,"x_max":682,"o":"m 174 901 q 139 936 174 936 q 104 901 104 936 q 139 867 104 867 q 174 901 174 867 m 301 949 q 267 983 301 983 q 232 949 232 983 q 267 914 232 914 q 301 949 301 914 m 428 900 q 393 935 428 935 q 358 900 358 935 q 393 865 358 865 q 428 900 428 865 m 613 899 q 647 864 613 864 q 682 899 682 864 q 647 933 682 933 q 613 899 613 933 m 486 851 q 521 817 486 817 q 556 851 556 817 q 521 886 556 886 q 486 851 486 886 z "},"":{"ha":833,"x_min":0,"x_max":0,"o":""},"":{"ha":833,"x_min":0,"x_max":0,"o":""},"":{"ha":833,"x_min":0,"x_max":0,"o":""},"":{"ha":833,"x_min":0,"x_max":0,"o":""},"":{"ha":833,"x_min":0,"x_max":0,"o":""},"":{"ha":833,"x_min":0,"x_max":0,"o":""},"":{"ha":833,"x_min":0,"x_max":0,"o":""},"":{"ha":833,"x_min":0,"x_max":0,"o":""},"":{"ha":833,"x_min":0,"x_max":0,"o":""},"":{"ha":833,"x_min":0,"x_max":0,"o":""},"":{"ha":833,"x_min":0,"x_max":0,"o":""},"":{"ha":833,"x_min":0,"x_max":0,"o":""},"":{"ha":833,"x_min":0,"x_max":0,"o":""},"":{"ha":833,"x_min":0,"x_max":0,"o":""},"":{"ha":833,"x_min":0,"x_max":0,"o":""},"":{"ha":833,"x_min":0,"x_max":0,"o":""},"":{"ha":833,"x_min":0,"x_max":0,"o":""},"":{"ha":833,"x_min":0,"x_max":0,"o":""},"":{"ha":833,"x_min":0,"x_max":0,"o":""},"":{"ha":833,"x_min":0,"x_max":0,"o":""},"":{"ha":833,"x_min":0,"x_max":0,"o":""},"":{"ha":833,"x_min":0,"x_max":0,"o":""},"":{"ha":833,"x_min":0,"x_max":0,"o":""},"":{"ha":833,"x_min":0,"x_max":0,"o":""},"":{"ha":833,"x_min":0,"x_max":0,"o":""},"":{"ha":833,"x_min":0,"x_max":0,"o":""},"":{"ha":833,"x_min":0,"x_max":0,"o":""},"":{"ha":833,"x_min":0,"x_max":0,"o":""},"":{"ha":833,"x_min":0,"x_max":0,"o":""},"":{"ha":833,"x_min":0,"x_max":0,"o":""},"":{"ha":833,"x_min":0,"x_max":0,"o":""},"":{"ha":833,"x_min":0,"x_max":0,"o":""},"":{"ha":833,"x_min":0,"x_max":0,"o":""},"":{"ha":833,"x_min":0,"x_max":0,"o":""},"":{"ha":833,"x_min":0,"x_max":0,"o":""},"":{"ha":833,"x_min":0,"x_max":0,"o":""},"":{"ha":833,"x_min":0,"x_max":0,"o":""},"":{"ha":833,"x_min":0,"x_max":0,"o":""},"":{"ha":833,"x_min":0,"x_max":0,"o":""},"":{"ha":833,"x_min":0,"x_max":0,"o":""},"":{"ha":833,"x_min":0,"x_max":0,"o":""},"":{"ha":833,"x_min":0,"x_max":0,"o":""},"":{"ha":833,"x_min":0,"x_max":0,"o":""},"":{"ha":833,"x_min":0,"x_max":0,"o":""},"":{"ha":833,"x_min":0,"x_max":0,"o":""},"":{"ha":833,"x_min":0,"x_max":0,"o":""},"":{"ha":833,"x_min":0,"x_max":0,"o":""},"":{"ha":833,"x_min":0,"x_max":0,"o":""},"":{"ha":833,"x_min":0,"x_max":0,"o":""},"":{"ha":833,"x_min":0,"x_max":0,"o":""},"":{"ha":833,"x_min":0,"x_max":0,"o":""},"":{"ha":833,"x_min":0,"x_max":0,"o":""},"":{"ha":833,"x_min":0,"x_max":0,"o":""},"":{"ha":833,"x_min":0,"x_max":0,"o":""},"":{"ha":833,"x_min":0,"x_max":0,"o":""},"":{"ha":833,"x_min":0,"x_max":0,"o":""},"":{"ha":833,"x_min":0,"x_max":0,"o":""},"":{"ha":833,"x_min":0,"x_max":0,"o":""},"":{"ha":833,"x_min":0,"x_max":0,"o":""},"":{"ha":833,"x_min":0,"x_max":0,"o":""},"":{"ha":833,"x_min":0,"x_max":0,"o":""},"":{"ha":833,"x_min":0,"x_max":0,"o":""},"":{"ha":833,"x_min":0,"x_max":0,"o":""},"":{"ha":833,"x_min":0,"x_max":0,"o":""},"":{"ha":833,"x_min":0,"x_max":0,"o":""},"":{"ha":833,"x_min":0,"x_max":0,"o":""},"":{"ha":833,"x_min":0,"x_max":0,"o":""},"":{"ha":667,"x_min":90,"x_max":576,"o":"m 299 418 q 264 383 299 383 q 229 418 229 383 q 264 453 229 453 q 299 418 299 453 m 160 418 q 125 383 160 383 q 90 418 90 383 q 125 453 90 453 q 160 418 160 453 m 438 418 q 403 383 438 383 q 368 418 368 383 q 403 453 368 453 q 438 418 438 453 m 576 418 q 542 383 576 383 q 507 418 507 383 q 542 453 507 453 q 576 418 576 453 z "},"":{"ha":1361,"x_min":90,"x_max":1271,"o":"m 160 418 q 125 383 160 383 q 90 418 90 383 q 125 453 90 453 q 160 418 160 453 m 299 418 q 264 383 299 383 q 229 418 229 383 q 264 453 229 453 q 299 418 299 453 m 438 418 q 403 383 438 383 q 368 418 368 383 q 403 453 368 453 q 438 418 438 453 m 576 418 q 542 383 576 383 q 507 418 507 383 q 542 453 507 453 q 576 418 576 453 m 715 418 q 681 383 715 383 q 646 418 646 383 q 681 453 646 453 q 715 418 715 453 m 854 418 q 819 383 854 383 q 785 418 785 383 q 819 453 785 453 q 854 418 854 453 m 993 418 q 958 383 993 383 q 924 418 924 383 q 958 453 924 453 q 993 418 993 453 m 1132 418 q 1097 383 1132 383 q 1063 418 1063 383 q 1097 453 1063 453 q 1132 418 1132 453 m 1271 418 q 1236 383 1271 383 q 1201 418 1201 383 q 1236 453 1201 453 q 1271 418 1271 453 z "},"":{"ha":483,"x_min":92,"x_max":379,"o":"m 169 835 q 122 821 153 804 q 108 868 92 838 q 156 882 125 899 q 169 835 186 865 m 206 1007 q 240 972 240 1007 q 206 938 240 938 q 171 972 171 938 q 206 1007 171 1007 m 261 821 q 247 868 231 838 q 294 882 264 899 q 315 851 315 869 q 296 824 315 836 q 261 821 276 813 m 344 1007 q 379 972 379 1007 q 344 938 379 938 q 310 972 310 938 q 344 1007 310 1007 z "},"":{"ha":483,"x_min":92,"x_max":379,"o":"m 169 835 q 122 821 153 804 q 108 868 92 838 q 140 888 119 888 q 156 882 150 888 q 169 835 182 856 m 206 1007 q 240 972 240 1007 q 206 938 240 938 q 171 972 171 938 q 206 1007 171 1007 m 308 835 q 261 821 292 804 q 247 868 231 838 q 294 882 264 899 q 308 835 325 865 m 344 1007 q 379 972 379 1007 q 344 938 379 938 q 310 972 310 938 q 344 1007 310 1007 z "},"":{"ha":344,"x_min":92,"x_max":240,"o":"m 169 835 q 122 821 153 804 q 108 868 92 838 q 156 882 125 899 q 169 835 186 865 m 206 1007 q 240 972 240 1007 q 206 938 240 938 q 171 972 171 938 q 206 1007 171 1007 z "},"":{"ha":344,"x_min":92,"x_max":240,"o":"m 169 835 q 122 821 153 804 q 108 868 92 838 q 156 882 125 899 q 169 835 186 865 m 206 1007 q 240 972 240 1007 q 206 938 240 938 q 171 972 171 938 q 206 1007 171 1007 z "},"":{"ha":806,"x_min":90,"x_max":715,"o":"m 438 140 q 403 106 438 106 q 368 140 368 106 q 403 175 368 175 q 438 140 438 175 m 438 418 q 403 383 438 383 q 368 418 368 383 q 403 453 368 453 q 438 418 438 453 m 576 418 q 542 383 576 383 q 507 418 507 383 q 542 453 507 453 q 576 418 576 453 m 715 418 q 681 383 715 383 q 646 418 646 383 q 681 453 646 453 q 715 418 715 453 m 299 418 q 264 383 299 383 q 229 418 229 383 q 264 453 229 453 q 299 418 299 453 m 160 418 q 125 383 160 383 q 90 418 90 383 q 125 453 90 453 q 160 418 160 453 m 438 696 q 403 661 438 661 q 368 696 368 661 q 403 731 368 731 q 438 696 438 731 z "},"":{"ha":833,"x_min":0,"x_max":0,"o":""},"":{"ha":833,"x_min":0,"x_max":0,"o":""},"":{"ha":833,"x_min":0,"x_max":0,"o":""},"":{"ha":833,"x_min":0,"x_max":0,"o":""},"":{"ha":833,"x_min":0,"x_max":0,"o":""},"":{"ha":833,"x_min":0,"x_max":0,"o":""},"":{"ha":833,"x_min":0,"x_max":0,"o":""},"":{"ha":833,"x_min":0,"x_max":0,"o":""},"":{"ha":483,"x_min":92,"x_max":379,"o":"m 169 -137 q 122 -151 153 -168 q 108 -104 92 -135 q 156 -90 125 -74 q 169 -137 186 -107 m 206 35 q 240 0 240 35 q 206 -35 240 -35 q 171 0 171 -35 q 206 35 171 35 m 308 -137 q 261 -151 292 -168 q 247 -104 231 -135 q 294 -90 264 -74 q 308 -137 325 -107 m 344 35 q 379 0 379 35 q 344 -35 379 -35 q 310 0 310 -35 q 344 35 310 35 z "},"":{"ha":833,"x_min":0,"x_max":0,"o":""},"":{"ha":833,"x_min":0,"x_max":0,"o":""},"":{"ha":833,"x_min":0,"x_max":0,"o":""},"":{"ha":833,"x_min":0,"x_max":0,"o":""},"":{"ha":833,"x_min":0,"x_max":0,"o":""},"":{"ha":833,"x_min":0,"x_max":0,"o":""},"":{"ha":833,"x_min":0,"x_max":0,"o":""},"":{"ha":833,"x_min":0,"x_max":0,"o":""},"":{"ha":833,"x_min":0,"x_max":0,"o":""},"":{"ha":833,"x_min":0,"x_max":0,"o":""},"":{"ha":833,"x_min":0,"x_max":0,"o":""},"":{"ha":833,"x_min":0,"x_max":0,"o":""},"":{"ha":833,"x_min":0,"x_max":0,"o":""},"":{"ha":833,"x_min":0,"x_max":0,"o":""},"":{"ha":833,"x_min":0,"x_max":0,"o":""},"":{"ha":833,"x_min":0,"x_max":0,"o":""},"":{"ha":833,"x_min":0,"x_max":0,"o":""},"":{"ha":833,"x_min":0,"x_max":0,"o":""},"":{"ha":833,"x_min":0,"x_max":0,"o":""},"":{"ha":833,"x_min":0,"x_max":0,"o":""},"":{"ha":833,"x_min":0,"x_max":0,"o":""},"":{"ha":833,"x_min":0,"x_max":0,"o":""},"":{"ha":833,"x_min":0,"x_max":0,"o":""},"":{"ha":833,"x_min":0,"x_max":0,"o":""},"":{"ha":833,"x_min":0,"x_max":0,"o":""},"":{"ha":833,"x_min":0,"x_max":0,"o":""},"":{"ha":833,"x_min":0,"x_max":0,"o":""},"":{"ha":833,"x_min":0,"x_max":0,"o":""},"":{"ha":833,"x_min":0,"x_max":0,"o":""},"":{"ha":833,"x_min":0,"x_max":0,"o":""},"":{"ha":833,"x_min":0,"x_max":0,"o":""},"":{"ha":833,"x_min":0,"x_max":0,"o":""},"":{"ha":833,"x_min":0,"x_max":0,"o":""},"":{"ha":833,"x_min":0,"x_max":0,"o":""},"":{"ha":833,"x_min":0,"x_max":0,"o":""},"":{"ha":833,"x_min":0,"x_max":0,"o":""},"":{"ha":833,"x_min":0,"x_max":0,"o":""},"":{"ha":833,"x_min":0,"x_max":0,"o":""},"":{"ha":833,"x_min":0,"x_max":0,"o":""},"":{"ha":833,"x_min":0,"x_max":0,"o":""},"":{"ha":833,"x_min":0,"x_max":0,"o":""},"":{"ha":833,"x_min":0,"x_max":0,"o":""},"":{"ha":833,"x_min":0,"x_max":0,"o":""},"":{"ha":833,"x_min":0,"x_max":0,"o":""},"":{"ha":833,"x_min":0,"x_max":0,"o":""},"":{"ha":833,"x_min":0,"x_max":0,"o":""},"":{"ha":833,"x_min":0,"x_max":0,"o":""},"":{"ha":833,"x_min":0,"x_max":0,"o":""},"":{"ha":833,"x_min":0,"x_max":0,"o":""},"":{"ha":833,"x_min":0,"x_max":0,"o":""},"":{"ha":833,"x_min":0,"x_max":0,"o":""},"":{"ha":833,"x_min":0,"x_max":0,"o":""},"":{"ha":833,"x_min":0,"x_max":0,"o":""},"":{"ha":833,"x_min":0,"x_max":0,"o":""},"":{"ha":833,"x_min":0,"x_max":0,"o":""},"":{"ha":833,"x_min":0,"x_max":0,"o":""},"":{"ha":833,"x_min":0,"x_max":0,"o":""},"":{"ha":833,"x_min":0,"x_max":0,"o":""},"":{"ha":833,"x_min":0,"x_max":0,"o":""},"":{"ha":833,"x_min":0,"x_max":0,"o":""},"":{"ha":833,"x_min":0,"x_max":0,"o":""},"":{"ha":833,"x_min":0,"x_max":0,"o":""},"":{"ha":833,"x_min":0,"x_max":0,"o":""},"":{"ha":833,"x_min":0,"x_max":0,"o":""},"":{"ha":833,"x_min":0,"x_max":0,"o":""},"":{"ha":833,"x_min":0,"x_max":0,"o":""}}}
